<?xml version="1.0" standalone="no"?>
<!DOCTYPE svg PUBLIC "-//W3C//DTD SVG 20010904//EN"
 "http://www.w3.org/TR/2001/REC-SVG-20010904/DTD/svg10.dtd">
<svg version="1.0" xmlns="http://www.w3.org/2000/svg"
 width="1800.000000pt" height="1800.000000pt" viewBox="0 0 1800.000000 1800.000000"
 preserveAspectRatio="xMidYMid meet">
<metadata>
Created by potrace 1.14, written by Peter Selinger 2001-2017
</metadata>
<g transform="translate(0.000000,1800.000000) scale(0.100000,-0.100000)"
fill="#000000" stroke="none">
<path d="M0 9000 l0 -9000 9000 0 9000 0 0 9000 0 9000 -9000 0 -9000 0 0
-9000z m17570 0 l0 -8580 -8575 0 -8575 0 0 8580 0 8580 8575 0 8575 0 0
-8580z"/>
<path d="M8563 16923 c15 -2 39 -2 55 0 15 2 2 4 -28 4 -30 0 -43 -2 -27 -4z"/>
<path d="M9313 16923 c15 -2 37 -2 50 0 12 2 0 4 -28 4 -27 0 -38 -2 -22 -4z"/>
<path d="M9440 16910 c0 -5 5 -10 11 -10 5 0 7 5 4 10 -3 6 -8 10 -11 10 -2 0
-4 -4 -4 -10z"/>
<path d="M8407 16880 c-61 -39 -61 -49 1 -14 57 33 56 33 50 39 -2 3 -25 -9
-51 -25z"/>
<path d="M8701 16907 c16 -13 119 -66 119 -62 0 9 -93 65 -109 65 -8 0 -12 -1
-10 -3z"/>
<path d="M9154 16881 c-18 -11 -35 -25 -39 -32 -9 -13 -3 -10 54 28 41 28 29
31 -15 4z"/>
<path d="M9514 16869 c27 -16 50 -28 52 -26 6 6 -73 57 -88 57 -6 0 10 -14 36
-31z"/>
<path d="M10028 16863 c6 -2 18 -2 25 0 6 3 1 5 -13 5 -14 0 -19 -2 -12 -5z"/>
<path d="M7878 16853 c7 -3 16 -2 19 1 4 3 -2 6 -13 5 -11 0 -14 -3 -6 -6z"/>
<path d="M7935 16840 c27 -12 43 -12 25 0 -8 5 -22 9 -30 9 -10 0 -8 -3 5 -9z"/>
<path d="M7980 16826 c0 -2 7 -7 16 -10 8 -3 12 -2 9 4 -6 10 -25 14 -25 6z"/>
<path d="M9845 16805 c-22 -13 -36 -25 -31 -25 10 0 76 39 76 46 0 7 -3 5 -45
-21z"/>
<path d="M7650 16800 c-14 -11 -20 -20 -15 -20 6 0 21 9 35 20 14 11 21 20 15
20 -5 0 -21 -9 -35 -20z"/>
<path d="M9054 16785 c-15 -20 -25 -37 -23 -39 2 -2 16 14 31 35 35 49 28 51
-8 4z"/>
<path d="M9591 16815 c0 -5 11 -23 24 -40 14 -16 25 -25 25 -20 0 6 -11 24
-25 40 -13 17 -24 26 -24 20z"/>
<path d="M10224 16801 c11 -11 23 -21 28 -21 14 0 -1 19 -25 31 -22 12 -22 12
-3 -10z"/>
<path d="M8020 16802 c0 -6 9 -12 20 -15 11 -3 20 -3 20 -1 0 2 -9 8 -20 14
-11 6 -20 7 -20 2z"/>
<path d="M8314 16798 c-4 -7 -14 -24 -22 -38 -14 -24 -13 -24 3 -5 20 24 37
55 31 55 -3 0 -8 -6 -12 -12z"/>
<path d="M8859 16786 c14 -14 27 -26 29 -26 10 0 -26 44 -39 48 -8 3 -3 -7 10
-22z"/>
<path d="M8493 16773 c53 -2 141 -2 195 0 53 1 9 3 -98 3 -107 0 -151 -2 -97
-3z"/>
<path d="M9768 16733 c-18 -21 -31 -43 -25 -43 2 0 13 14 25 30 25 33 24 41 0
13z"/>
<path d="M10309 16723 c12 -18 24 -33 27 -33 9 0 -15 37 -33 51 -12 10 -11 5
6 -18z"/>
<path d="M7573 16728 c-24 -32 -24 -41 0 -19 15 14 27 26 27 28 0 8 -19 2 -27
-9z"/>
<path d="M8119 16713 c12 -18 24 -33 27 -33 9 0 -15 37 -33 51 -12 10 -11 5 6
-18z"/>
<path d="M10835 16710 c3 -5 8 -10 11 -10 2 0 4 5 4 10 0 6 -5 10 -11 10 -5 0
-7 -4 -4 -10z"/>
<path d="M8493 16703 c53 -2 141 -2 195 0 53 1 9 3 -98 3 -107 0 -151 -2 -97
-3z"/>
<path d="M10880 16700 c8 -5 20 -10 25 -10 6 0 3 5 -5 10 -8 5 -19 10 -25 10
-5 0 -3 -5 5 -10z"/>
<path d="M7211 16697 c20 -16 119 -66 114 -57 -6 10 -98 60 -111 60 -4 0 -5
-1 -3 -3z"/>
<path d="M10614 16684 c-18 -14 -18 -14 6 -3 31 14 36 19 24 19 -6 0 -19 -7
-30 -16z"/>
<path d="M6927 16660 c-26 -16 -47 -32 -47 -35 0 -7 2 -5 69 37 25 15 40 28
35 28 -6 0 -31 -13 -57 -30z"/>
<path d="M10920 16687 c3 -3 22 -17 43 -31 41 -28 65 -35 32 -10 -21 16 -84
51 -75 41z"/>
<path d="M10560 16649 c-22 -18 -22 -19 -3 -10 12 6 25 16 28 21 9 15 3 12
-25 -11z"/>
<path d="M8407 16633 c-3 -5 52 -7 121 -5 234 4 258 8 70 10 -103 1 -189 -1
-191 -5z"/>
<path d="M9203 16633 c15 -2 37 -2 50 0 12 2 0 4 -28 4 -27 0 -38 -2 -22 -4z"/>
<path d="M9428 16633 c18 -2 45 -2 60 0 15 2 0 4 -33 4 -33 0 -45 -2 -27 -4z"/>
<path d="M9888 16633 c17 -2 47 -2 65 0 17 2 3 4 -33 4 -36 0 -50 -2 -32 -4z"/>
<path d="M10128 16633 c17 -2 47 -2 65 0 17 2 3 4 -33 4 -36 0 -50 -2 -32 -4z"/>
<path d="M7753 16623 c54 -2 139 -2 190 0 51 1 7 3 -98 3 -104 0 -146 -2 -92
-3z"/>
<path d="M10486 16570 c-36 -55 -33 -63 5 -11 17 24 29 45 26 47 -2 2 -16 -14
-31 -36z"/>
<path d="M11030 16604 c0 -10 49 -73 50 -63 0 3 -11 20 -25 39 -14 19 -25 30
-25 24z"/>
<path d="M6832 16573 c-29 -43 -36 -61 -13 -33 25 29 44 60 37 60 -3 0 -13
-12 -24 -27z"/>
<path d="M7360 16593 c0 -7 4 -13 9 -13 5 0 18 -15 30 -32 11 -18 21 -28 21
-23 0 6 -13 26 -30 45 -16 19 -29 29 -30 23z"/>
<path d="M8448 16563 c18 -2 45 -2 60 0 15 2 0 4 -33 4 -33 0 -45 -2 -27 -4z"/>
<path d="M8636 16562 c-2 -4 14 -6 37 -4 68 5 76 10 20 11 -28 0 -54 -2 -57
-7z"/>
<path d="M9883 16563 c20 -2 54 -2 75 0 20 2 3 4 -38 4 -41 0 -58 -2 -37 -4z"/>
<path d="M10117 16563 c18 -2 50 -2 70 0 21 2 7 4 -32 4 -38 0 -55 -2 -38 -4z"/>
<path d="M10618 16563 c23 -2 59 -2 80 0 20 2 1 4 -43 4 -44 0 -61 -2 -37 -4z"/>
<path d="M10858 16563 c23 -2 59 -2 80 0 20 2 1 4 -43 4 -44 0 -61 -2 -37 -4z"/>
<path d="M11438 16503 c6 -2 18 -2 25 0 6 3 1 5 -13 5 -14 0 -19 -2 -12 -5z"/>
<path d="M11528 16503 c7 -3 16 -2 19 1 4 3 -2 6 -13 5 -11 0 -14 -3 -6 -6z"/>
<path d="M6378 16493 c12 -2 30 -2 40 0 9 3 -1 5 -23 4 -22 0 -30 -2 -17 -4z"/>
<path d="M9953 16493 c48 -2 126 -2 175 0 48 1 8 3 -88 3 -96 0 -136 -2 -87
-3z"/>
<path d="M11345 16476 c-27 -14 -61 -35 -75 -47 l-25 -21 30 18 c17 10 55 31
85 46 30 15 51 28 45 28 -5 0 -32 -11 -60 -24z"/>
<path d="M11568 16493 c7 -3 16 -2 19 1 4 3 -2 6 -13 5 -11 0 -14 -3 -6 -6z"/>
<path d="M6318 16483 c7 -3 16 -2 19 1 4 3 -2 6 -13 5 -11 0 -14 -3 -6 -6z"/>
<path d="M6963 16483 c15 -2 39 -2 55 0 15 2 2 4 -28 4 -30 0 -43 -2 -27 -4z"/>
<path d="M7203 16483 c15 -2 39 -2 55 0 15 2 2 4 -28 4 -30 0 -43 -2 -27 -4z"/>
<path d="M7753 16483 c54 -2 139 -2 190 0 51 1 7 3 -98 3 -104 0 -146 -2 -92
-3z"/>
<path d="M8493 16483 c53 -2 141 -2 195 0 53 1 9 3 -98 3 -107 0 -151 -2 -97
-3z"/>
<path d="M9243 16483 c53 -2 141 -2 195 0 53 1 9 3 -98 3 -107 0 -151 -2 -97
-3z"/>
<path d="M11640 16465 c25 -14 56 -33 70 -43 13 -9 21 -11 16 -4 -9 14 -106
72 -121 71 -5 0 10 -11 35 -24z"/>
<path d="M6528 16460 c24 -11 58 -30 75 -42 24 -17 28 -18 18 -4 -16 19 -103
66 -123 66 -7 0 6 -9 30 -20z"/>
<path d="M6208 16440 c-56 -35 -65 -52 -10 -19 59 36 77 49 67 49 -6 0 -31
-14 -57 -30z"/>
<path d="M10580 16423 c0 -5 33 -8 74 -8 41 0 72 3 69 8 -2 4 -35 7 -74 7 -38
0 -69 -3 -69 -7z"/>
<path d="M10820 16423 c0 -5 33 -8 74 -8 41 0 72 3 69 8 -2 4 -35 7 -74 7 -38
0 -69 -3 -69 -7z"/>
<path d="M6925 16410 c-3 -5 -2 -10 4 -10 5 0 13 5 16 10 3 6 2 10 -4 10 -5 0
-13 -4 -16 -10z"/>
<path d="M7280 16410 c0 -6 7 -10 15 -10 8 0 15 2 15 4 0 2 -7 6 -15 10 -8 3
-15 1 -15 -4z"/>
<path d="M8483 16413 c48 -2 126 -2 175 0 48 1 8 3 -88 3 -96 0 -136 -2 -87
-3z"/>
<path d="M8758 16413 c7 -3 16 -2 19 1 4 3 -2 6 -13 5 -11 0 -14 -3 -6 -6z"/>
<path d="M8950 16410 c0 -5 5 -10 10 -10 6 0 10 5 10 10 0 6 -4 10 -10 10 -5
0 -10 -4 -10 -10z"/>
<path d="M11212 16373 c-29 -43 -36 -61 -13 -33 25 29 44 60 37 60 -3 0 -13
-12 -24 -27z"/>
<path d="M11748 16385 c6 -11 21 -31 33 -45 l21 -25 -19 33 c-10 19 -24 39
-32 45 -12 10 -12 9 -3 -8z"/>
<path d="M6122 16363 c-29 -43 -36 -61 -13 -33 25 29 44 60 37 60 -3 0 -13
-12 -24 -27z"/>
<path d="M9640 16380 c0 -5 5 -10 10 -10 6 0 10 5 10 10 0 6 -4 10 -10 10 -5
0 -10 -4 -10 -10z"/>
<path d="M6669 16353 c12 -18 24 -33 27 -33 9 0 -15 37 -33 51 -12 10 -11 5 6
-18z"/>
<path d="M10580 16353 c0 -5 87 -8 194 -8 107 0 192 3 189 8 -2 4 -89 7 -194
7 -104 0 -189 -3 -189 -7z"/>
<path d="M6206 16341 c-3 -4 29 -9 70 -10 50 -1 74 2 69 9 -7 12 -132 14 -139
1z"/>
<path d="M6445 16339 c-5 -7 18 -9 69 -8 41 1 73 6 70 10 -8 13 -132 11 -139
-2z"/>
<path d="M8383 16333 c9 -2 23 -2 30 0 6 3 -1 5 -18 5 -16 0 -22 -2 -12 -5z"/>
<path d="M8788 16333 c6 -2 18 -2 25 0 6 3 1 5 -13 5 -14 0 -19 -2 -12 -5z"/>
<path d="M10583 16278 c-2 -5 85 -8 193 -8 109 0 195 3 191 6 -9 9 -378 10
-384 2z"/>
<path d="M11303 16282 c-6 -4 76 -7 183 -7 107 0 194 3 194 8 0 9 -361 9 -377
-1z"/>
<path d="M6205 16270 c-3 -5 -1 -10 4 -10 6 0 11 5 11 10 0 6 -2 10 -4 10 -3
0 -8 -4 -11 -10z"/>
<path d="M6248 16273 c12 -2 32 -2 45 0 12 2 2 4 -23 4 -25 0 -35 -2 -22 -4z"/>
<path d="M6320 16276 c0 -2 7 -7 16 -10 8 -3 12 -2 9 4 -6 10 -25 14 -25 6z"/>
<path d="M6445 16270 c-3 -6 1 -7 9 -4 18 7 21 14 7 14 -6 0 -13 -4 -16 -10z"/>
<path d="M6498 16273 c12 -2 32 -2 45 0 12 2 2 4 -23 4 -25 0 -35 -2 -22 -4z"/>
<path d="M12145 16220 c4 -6 11 -8 16 -5 14 9 11 15 -7 15 -8 0 -12 -5 -9 -10z"/>
<path d="M12205 16220 c4 -6 11 -8 16 -5 14 9 11 15 -7 15 -8 0 -12 -5 -9 -10z"/>
<path d="M10585 16210 c-4 -7 62 -10 190 -10 128 0 194 3 190 10 -4 6 -78 10
-190 10 -112 0 -186 -4 -190 -10z"/>
<path d="M11297 16213 c-3 -5 30 -8 73 -8 43 0 76 3 73 8 -2 4 -35 7 -73 7
-38 0 -71 -3 -73 -7z"/>
<path d="M11540 16213 c0 -5 32 -8 70 -8 39 0 70 3 70 7 0 5 -31 8 -70 8 -38
0 -70 -3 -70 -7z"/>
<path d="M5748 16203 c7 -3 16 -2 19 1 4 3 -2 6 -13 5 -11 0 -14 -3 -6 -6z"/>
<path d="M12018 16185 c-26 -14 -50 -30 -54 -36 -6 -11 80 35 101 53 15 13 3
9 -47 -17z"/>
<path d="M5565 16181 c-22 -10 -49 -26 -60 -36 -14 -12 -10 -11 15 3 19 11 51
27 70 35 19 9 31 16 25 16 -5 0 -28 -8 -50 -18z"/>
<path d="M6298 16193 c57 -2 147 -2 200 0 53 1 7 3 -103 3 -110 0 -154 -2 -97
-3z"/>
<path d="M12320 16196 c0 -7 71 -49 75 -44 3 2 -13 15 -35 27 -22 12 -40 20
-40 17z"/>
<path d="M5868 16159 c30 -17 56 -29 58 -26 5 4 -89 57 -102 57 -5 0 15 -14
44 -31z"/>
<path d="M11480 16140 l-195 -6 198 -2 c126 -1 197 2 197 8 0 6 -1 9 -2 8 -2
-1 -91 -5 -198 -8z"/>
<path d="M8750 16130 l-135 -6 157 -2 c96 -1 159 2 163 8 4 6 -5 9 -22 8 -15
-1 -89 -5 -163 -8z"/>
<path d="M8988 16133 c6 -2 18 -2 25 0 6 3 1 5 -13 5 -14 0 -19 -2 -12 -5z"/>
<path d="M6238 16123 c23 -2 59 -2 80 0 20 2 1 4 -43 4 -44 0 -61 -2 -37 -4z"/>
<path d="M6478 16123 c23 -2 59 -2 80 0 20 2 1 4 -43 4 -44 0 -61 -2 -37 -4z"/>
<path d="M9248 16123 c12 -2 30 -2 40 0 9 3 -1 5 -23 4 -22 0 -30 -2 -17 -4z"/>
<path d="M8322 16113 c-29 -2 -50 -8 -47 -13 7 -11 95 -2 110 11 6 6 6 8 0 7
-6 -1 -34 -3 -63 -5z"/>
<path d="M8473 16113 c9 -2 23 -2 30 0 6 3 -1 5 -18 5 -16 0 -22 -2 -12 -5z"/>
<path d="M9433 16113 c9 -2 23 -2 30 0 6 3 -1 5 -18 5 -16 0 -22 -2 -12 -5z"/>
<path d="M9563 16103 c9 -2 25 -2 35 0 9 3 1 5 -18 5 -19 0 -27 -2 -17 -5z"/>
<path d="M9640 16100 c0 -5 14 -10 32 -10 36 0 35 4 -4 14 -17 4 -28 2 -28 -4z"/>
<path d="M11908 16093 c-19 -23 -31 -43 -24 -43 2 0 14 14 26 30 23 33 22 40
-2 13z"/>
<path d="M12450 16084 c42 -49 44 -50 22 -14 -11 19 -27 36 -34 39 -7 2 -2 -9
12 -25z"/>
<path d="M5960 16094 c1 -10 50 -73 50 -63 0 3 -11 20 -25 39 -14 19 -25 30
-25 24z"/>
<path d="M6795 16090 c3 -5 11 -10 16 -10 6 0 7 5 4 10 -3 6 -11 10 -16 10 -6
0 -7 -4 -4 -10z"/>
<path d="M8165 16090 c-8 -13 45 -13 65 0 11 7 6 10 -22 10 -20 0 -40 -4 -43
-10z"/>
<path d="M9735 16090 c3 -5 14 -10 23 -10 15 0 15 2 2 10 -20 13 -33 13 -25 0z"/>
<path d="M5422 16063 c-23 -35 -38 -62 -26 -48 5 6 22 25 38 43 17 17 25 32
19 32 -7 0 -20 -12 -31 -27z"/>
<path d="M8085 16080 c-3 -5 -2 -10 4 -10 5 0 13 5 16 10 3 6 2 10 -4 10 -5 0
-13 -4 -16 -10z"/>
<path d="M9820 16080 c0 -5 5 -10 11 -10 5 0 7 5 4 10 -3 6 -8 10 -11 10 -2 0
-4 -4 -4 -10z"/>
<path d="M9895 16070 c3 -5 8 -10 11 -10 2 0 4 5 4 10 0 6 -5 10 -11 10 -5 0
-7 -4 -4 -10z"/>
<path d="M11355 16069 c-43 -3 7 -6 129 -7 110 -1 197 0 195 2 -8 8 -249 11
-324 5z"/>
<path d="M7945 16060 c3 -5 8 -10 11 -10 2 0 4 5 4 10 0 6 -5 10 -11 10 -5 0
-7 -4 -4 -10z"/>
<path d="M5613 16053 c48 -2 126 -2 175 0 48 1 8 3 -88 3 -96 0 -136 -2 -87
-3z"/>
<path d="M6260 16053 c158 -7 330 -7 330 0 0 4 -89 6 -197 5 -109 -1 -169 -3
-133 -5z"/>
<path d="M7878 16053 c7 -3 16 -2 19 1 4 3 -2 6 -13 5 -11 0 -14 -3 -6 -6z"/>
<path d="M10098 16043 c7 -3 16 -2 19 1 4 3 -2 6 -13 5 -11 0 -14 -3 -6 -6z"/>
<path d="M7698 16023 c6 -2 18 -2 25 0 6 3 1 5 -13 5 -14 0 -19 -2 -12 -5z"/>
<path d="M10208 16023 c7 -3 16 -2 19 1 4 3 -2 6 -13 5 -11 0 -14 -3 -6 -6z"/>
<path d="M7648 16013 c7 -3 16 -2 19 1 4 3 -2 6 -13 5 -11 0 -14 -3 -6 -6z"/>
<path d="M10258 16013 c7 -3 16 -2 19 1 4 3 -2 6 -13 5 -11 0 -14 -3 -6 -6z"/>
<path d="M7574 16001 c3 -5 15 -7 26 -4 28 7 25 13 -6 13 -14 0 -23 -4 -20 -9z"/>
<path d="M10353 15993 c9 -2 23 -2 30 0 6 3 -1 5 -18 5 -16 0 -22 -2 -12 -5z"/>
<path d="M12023 15993 c20 -2 54 -2 75 0 20 2 3 4 -38 4 -41 0 -58 -2 -37 -4z"/>
<path d="M12263 15993 c20 -2 54 -2 75 0 20 2 3 4 -38 4 -41 0 -58 -2 -37 -4z"/>
<path d="M5633 15983 c48 -2 125 -2 170 0 45 1 6 3 -88 3 -93 0 -130 -2 -82
-3z"/>
<path d="M6200 15983 c0 -5 88 -8 195 -8 107 0 195 3 195 8 0 4 -88 7 -195 7
-107 0 -195 -3 -195 -7z"/>
<path d="M7498 15983 c6 -2 18 -2 25 0 6 3 1 5 -13 5 -14 0 -19 -2 -12 -5z"/>
<path d="M10408 15983 c7 -3 16 -2 19 1 4 3 -2 6 -13 5 -11 0 -14 -3 -6 -6z"/>
<path d="M7448 15973 c6 -2 18 -2 25 0 6 3 1 5 -13 5 -14 0 -19 -2 -12 -5z"/>
<path d="M10448 15973 c6 -2 18 -2 25 0 6 3 1 5 -13 5 -14 0 -19 -2 -12 -5z"/>
<path d="M7333 15952 c-39 -10 -75 -21 -80 -26 -4 -5 -2 -7 7 -4 9 3 50 13 93
23 42 9 77 19 77 21 0 6 -19 3 -97 -14z"/>
<path d="M10498 15963 c7 -3 16 -2 19 1 4 3 -2 6 -13 5 -11 0 -14 -3 -6 -6z"/>
<path d="M10635 15930 c60 -16 111 -27 114 -25 5 6 -9 10 -106 35 -45 11 -90
20 -100 19 -10 0 31 -14 92 -29z"/>
<path d="M7220 15920 c-9 -6 -10 -10 -3 -10 6 0 15 5 18 10 8 12 4 12 -15 0z"/>
<path d="M7180 15910 c-9 -6 -10 -10 -3 -10 6 0 15 5 18 10 8 12 4 12 -15 0z"/>
<path d="M11293 15913 c9 -2 23 -2 30 0 6 3 -1 5 -18 5 -16 0 -22 -2 -12 -5z"/>
<path d="M11678 15913 c7 -3 16 -2 19 1 4 3 -2 6 -13 5 -11 0 -14 -3 -6 -6z"/>
<path d="M6283 15903 c64 -2 170 -2 235 0 64 1 11 3 -118 3 -129 0 -182 -2
-117 -3z"/>
<path d="M10765 15900 c3 -5 8 -10 11 -10 2 0 4 5 4 10 0 6 -5 10 -11 10 -5 0
-7 -4 -4 -10z"/>
<path d="M7070 15879 c0 -5 5 -7 10 -4 6 3 10 8 10 11 0 2 -4 4 -10 4 -5 0
-10 -5 -10 -11z"/>
<path d="M12805 15870 c4 -6 11 -8 16 -5 14 9 11 15 -7 15 -8 0 -12 -5 -9 -10z"/>
<path d="M12858 15873 c6 -2 18 -2 25 0 6 3 1 5 -13 5 -14 0 -19 -2 -12 -5z"/>
<path d="M11755 15860 c-3 -5 -2 -10 4 -10 5 0 13 5 16 10 3 6 2 10 -4 10 -5
0 -13 -4 -16 -10z"/>
<path d="M5008 15853 c6 -2 18 -2 25 0 6 3 1 5 -13 5 -14 0 -19 -2 -12 -5z"/>
<path d="M5068 15853 c7 -3 16 -2 19 1 4 3 -2 6 -13 5 -11 0 -14 -3 -6 -6z"/>
<path d="M10935 15850 c3 -5 18 -10 32 -10 32 0 28 5 -10 14 -19 4 -26 3 -22
-4z"/>
<path d="M12677 15834 c-27 -14 -47 -27 -44 -30 4 -5 97 45 97 52 0 6 0 6 -53
-22z"/>
<path d="M5118 15843 c7 -3 16 -2 19 1 4 3 -2 6 -13 5 -11 0 -14 -3 -6 -6z"/>
<path d="M12980 15846 c0 -8 71 -48 76 -43 3 3 -12 15 -35 27 -23 11 -41 18
-41 16z"/>
<path d="M4872 15809 c-30 -17 -51 -33 -48 -36 3 -4 14 1 23 9 10 9 36 25 58
36 22 12 36 21 30 21 -5 1 -34 -13 -63 -30z"/>
<path d="M5160 15830 c8 -5 20 -10 25 -10 6 0 3 5 -5 10 -8 5 -19 10 -25 10
-5 0 -3 -5 5 -10z"/>
<path d="M5547 15833 c18 -2 50 -2 70 0 21 2 7 4 -32 4 -38 0 -55 -2 -38 -4z"/>
<path d="M5787 15833 c18 -2 50 -2 70 0 21 2 7 4 -32 4 -38 0 -55 -2 -38 -4z"/>
<path d="M5200 15816 c0 -2 17 -14 38 -25 l37 -21 -30 25 c-28 23 -45 31 -45
21z"/>
<path d="M6723 15780 c-35 -14 -27 -20 10 -8 17 6 34 13 36 14 8 7 -24 3 -46
-6z"/>
<path d="M11151 15786 c12 -10 99 -34 99 -27 0 5 -20 14 -44 20 -46 11 -62 14
-55 7z"/>
<path d="M6675 15760 c-3 -5 -1 -10 4 -10 6 0 11 5 11 10 0 6 -2 10 -4 10 -3
0 -8 -4 -11 -10z"/>
<path d="M6645 15750 c-3 -5 -1 -10 4 -10 6 0 11 5 11 10 0 6 -2 10 -4 10 -3
0 -8 -4 -11 -10z"/>
<path d="M11265 15750 c3 -5 8 -10 11 -10 2 0 4 5 4 10 0 6 -5 10 -11 10 -5 0
-7 -4 -4 -10z"/>
<path d="M12559 15728 c-16 -24 -17 -28 -3 -13 10 11 25 26 33 33 9 7 10 12 4
12 -7 0 -22 -15 -34 -32z"/>
<path d="M13100 15759 c0 -3 11 -20 25 -39 14 -19 25 -30 25 -24 0 10 -49 73
-50 63z"/>
<path d="M4770 15718 l-23 -33 28 28 c15 16 25 31 22 33 -3 3 -15 -10 -27 -28z"/>
<path d="M11295 15740 c3 -5 8 -10 11 -10 2 0 4 5 4 10 0 6 -5 10 -11 10 -5 0
-7 -4 -4 -10z"/>
<path d="M5319 15713 c12 -18 24 -33 27 -33 9 0 -15 37 -33 51 -12 10 -11 5 6
-18z"/>
<path d="M6590 15729 c0 -5 5 -7 10 -4 6 3 10 8 10 11 0 2 -4 4 -10 4 -5 0
-10 -5 -10 -11z"/>
<path d="M6560 15719 c0 -5 5 -7 10 -4 6 3 10 8 10 11 0 2 -4 4 -10 4 -5 0
-10 -5 -10 -11z"/>
<path d="M6520 15710 c-8 -5 -10 -10 -5 -10 6 0 17 5 25 10 8 5 11 10 5 10 -5
0 -17 -5 -25 -10z"/>
<path d="M11410 15700 c8 -5 20 -10 25 -10 6 0 3 5 -5 10 -8 5 -19 10 -25 10
-5 0 -3 -5 5 -10z"/>
<path d="M5623 15693 c48 -2 125 -2 170 0 45 1 6 3 -88 3 -93 0 -130 -2 -82
-3z"/>
<path d="M11490 15670 c8 -5 20 -10 25 -10 6 0 3 5 -5 10 -8 5 -19 10 -25 10
-5 0 -3 -5 5 -10z"/>
<path d="M6321 15635 c-46 -19 -89 -31 -95 -28 -6 3 -6 0 1 -7 10 -10 18 -10
45 2 18 8 59 25 91 38 31 12 57 24 57 26 0 7 -14 3 -99 -31z"/>
<path d="M12903 15652 c-6 -4 19 -7 57 -7 37 0 66 3 63 8 -5 9 -104 9 -120 -1z"/>
<path d="M11589 15630 c24 -11 46 -18 49 -15 5 5 -26 18 -68 29 -14 3 -5 -3
19 -14z"/>
<path d="M12683 15643 c20 -2 54 -2 75 0 20 2 3 4 -38 4 -41 0 -58 -2 -37 -4z"/>
<path d="M11968 15633 c7 -3 16 -2 19 1 4 3 -2 6 -13 5 -11 0 -14 -3 -6 -6z"/>
<path d="M4923 15623 c32 -2 81 -2 110 0 29 2 3 3 -58 3 -60 0 -84 -1 -52 -3z"/>
<path d="M5118 15623 c18 -2 45 -2 60 0 15 2 0 4 -33 4 -33 0 -45 -2 -27 -4z"/>
<path d="M11685 15593 c16 -15 65 -33 65 -24 0 5 -8 11 -17 14 -10 2 -27 8
-38 12 -13 5 -16 5 -10 -2z"/>
<path d="M6165 15570 c-19 -8 -19 -9 2 -9 12 -1 25 4 28 9 7 12 -2 12 -30 0z"/>
<path d="M6120 15550 c-9 -6 -10 -10 -3 -10 6 0 15 5 18 10 8 12 4 12 -15 0z"/>
<path d="M12415 15550 c-3 -6 1 -7 9 -4 18 7 21 14 7 14 -6 0 -13 -4 -16 -10z"/>
<path d="M11810 15540 c8 -5 20 -10 25 -10 6 0 3 5 -5 10 -8 5 -19 10 -25 10
-5 0 -3 -5 5 -10z"/>
<path d="M5450 15536 c0 -2 7 -9 15 -16 13 -11 14 -10 9 4 -5 14 -24 23 -24
12z"/>
<path d="M6030 15510 c-19 -11 -30 -19 -25 -19 6 0 26 8 45 19 19 11 31 19 25
19 -5 0 -26 -8 -45 -19z"/>
<path d="M11864 15516 c11 -9 24 -16 30 -16 12 0 7 5 -24 19 -24 11 -24 11 -6
-3z"/>
<path d="M11930 15488 c13 -14 170 -87 170 -80 0 5 -35 24 -77 43 -88 39 -100
44 -93 37z"/>
<path d="M5860 15430 c-41 -21 -70 -39 -65 -39 6 0 44 18 85 39 41 21 71 39
65 39 -5 0 -44 -18 -85 -39z"/>
<path d="M13408 15453 c7 -3 16 -2 19 1 4 3 -2 6 -13 5 -11 0 -14 -3 -6 -6z"/>
<path d="M13518 15453 c7 -3 16 -2 19 1 4 3 -2 6 -13 5 -11 0 -14 -3 -6 -6z"/>
<path d="M13550 15456 c0 -2 31 -20 70 -39 38 -19 67 -31 64 -26 -9 15 -134
75 -134 65z"/>
<path d="M13338 15443 c-10 -2 -18 -9 -18 -14 0 -6 7 -6 18 -1 9 5 24 12 32
15 13 5 13 5 0 5 -8 0 -23 -2 -32 -5z"/>
<path d="M4345 15430 c-3 -5 -1 -10 4 -10 6 0 11 5 11 10 0 6 -2 10 -4 10 -3
0 -8 -4 -11 -10z"/>
<path d="M4398 15433 c12 -2 32 -2 45 0 12 2 2 4 -23 4 -25 0 -35 -2 -22 -4z"/>
<path d="M4310 15419 c0 -5 5 -7 10 -4 6 3 10 8 10 11 0 2 -4 4 -10 4 -5 0
-10 -5 -10 -11z"/>
<path d="M4537 15419 c7 -7 15 -10 18 -7 3 3 -2 9 -12 12 -14 6 -15 5 -6 -5z"/>
<path d="M13273 15409 c-34 -22 -40 -29 -24 -29 10 0 70 49 61 50 -3 0 -20
-10 -37 -21z"/>
<path d="M4953 15413 c54 -2 139 -2 190 0 51 1 7 3 -98 3 -104 0 -146 -2 -92
-3z"/>
<path d="M4232 15386 c-44 -31 -55 -45 -17 -21 52 32 70 45 60 45 -6 -1 -25
-11 -43 -24z"/>
<path d="M4571 15406 c14 -15 82 -56 85 -53 5 5 -72 57 -82 57 -4 0 -5 -2 -3
-4z"/>
<path d="M12124 15396 c11 -9 24 -16 30 -16 12 0 7 5 -24 19 -24 11 -24 11 -6
-3z"/>
<path d="M5685 15345 c-59 -32 -83 -41 -93 -33 -9 8 -11 7 -6 -6 4 -9 12 -16
18 -14 20 5 176 88 176 93 0 9 -14 3 -95 -40z"/>
<path d="M12170 15376 c0 -8 102 -66 116 -66 7 0 15 7 18 16 5 13 4 14 -7 6
-11 -9 -27 -5 -70 19 -32 17 -57 28 -57 25z"/>
<path d="M12753 15363 c48 -2 126 -2 175 0 48 1 8 3 -88 3 -96 0 -136 -2 -87
-3z"/>
<path d="M4953 15343 c48 -2 126 -2 175 0 48 1 8 3 -88 3 -96 0 -136 -2 -87
-3z"/>
<path d="M13196 15334 c-9 -8 -21 -25 -27 -37 -6 -12 -7 -17 -3 -12 45 51 57
65 51 65 -3 0 -13 -7 -21 -16z"/>
<path d="M13740 15320 c12 -16 24 -30 26 -30 3 0 -4 14 -16 30 -12 17 -24 30
-26 30 -3 0 4 -13 16 -30z"/>
<path d="M4150 15308 c-23 -35 -34 -54 -24 -43 44 49 56 65 48 65 -5 0 -16
-10 -24 -22z"/>
<path d="M4680 15324 c1 -10 50 -73 50 -63 0 3 -11 20 -25 39 -14 19 -25 30
-25 24z"/>
<path d="M13328 15303 c7 -3 16 -2 19 1 4 3 -2 6 -13 5 -11 0 -14 -3 -6 -6z"/>
<path d="M13373 15303 c9 -2 23 -2 30 0 6 3 -1 5 -18 5 -16 0 -22 -2 -12 -5z"/>
<path d="M13538 15303 c12 -2 30 -2 40 0 9 3 -1 5 -23 4 -22 0 -30 -2 -17 -4z"/>
<path d="M13608 15303 c6 -2 18 -2 25 0 6 3 1 5 -13 5 -14 0 -19 -2 -12 -5z"/>
<path d="M12320 15296 c0 -8 112 -67 117 -62 3 2 -22 19 -56 35 -34 17 -61 29
-61 27z"/>
<path d="M5379 15176 c-97 -57 -222 -133 -278 -170 -56 -36 -103 -66 -105 -66
-2 0 -36 50 -76 110 -40 61 -78 110 -84 110 -8 0 -8 -2 0 -8 6 -4 43 -55 83
-114 39 -60 74 -108 77 -108 3 0 37 22 77 48 81 55 302 187 420 251 72 40 88
52 70 51 -5 -1 -87 -47 -184 -104z"/>
<path d="M12500 15197 c0 -3 55 -38 123 -78 67 -40 154 -93 192 -116 39 -24
57 -33 42 -20 -15 13 -99 66 -185 117 -182 108 -172 102 -172 97z"/>
<path d="M13038 15173 c-8 -10 -18 -25 -22 -33 -4 -8 0 -6 8 5 9 11 24 26 33
33 9 6 12 12 6 12 -5 0 -17 -8 -25 -17z"/>
<path d="M13373 15093 c54 -2 139 -2 190 0 51 1 7 3 -98 3 -104 0 -146 -2 -92
-3z"/>
<path d="M13388 15023 c45 -2 119 -2 165 0 45 1 8 3 -83 3 -91 0 -128 -2 -82
-3z"/>
<path d="M4333 14993 c53 -2 141 -2 195 0 53 1 9 3 -98 3 -107 0 -151 -2 -97
-3z"/>
<path d="M12910 14980 c-6 -11 -8 -20 -6 -20 3 0 10 9 16 20 6 11 8 20 6 20
-3 0 -10 -9 -16 -20z"/>
<path d="M13935 14976 c-42 -13 -129 -66 -121 -74 3 -2 19 6 37 19 18 12 60
33 93 45 65 24 58 31 -9 10z"/>
<path d="M14098 14983 c7 -3 16 -2 19 1 4 3 -2 6 -13 5 -11 0 -14 -3 -6 -6z"/>
<path d="M3753 14955 c-48 -14 -137 -64 -130 -72 3 -3 18 5 34 16 15 12 52 29
81 39 28 10 55 22 59 25 8 9 7 8 -44 -8z"/>
<path d="M3838 14963 c6 -2 18 -2 25 0 6 3 1 5 -13 5 -14 0 -19 -2 -12 -5z"/>
<path d="M3893 14964 c12 -13 87 -33 87 -24 0 4 -12 11 -27 14 -16 4 -37 10
-48 13 -11 3 -16 2 -12 -3z"/>
<path d="M14211 14942 c67 -42 69 -44 69 -37 0 8 -91 65 -104 65 -5 0 10 -13
35 -28z"/>
<path d="M12920 14937 c0 -3 51 -40 113 -83 140 -96 240 -170 339 -251 43 -35
81 -63 86 -63 5 0 17 10 28 23 l19 22 -22 -18 c-22 -19 -22 -18 -145 76 -181
139 -418 305 -418 294z"/>
<path d="M4019 14916 c8 -9 24 -22 35 -28 19 -10 20 -10 7 6 -8 9 -24 22 -35
28 -19 10 -20 10 -7 -6z"/>
<path d="M4845 14834 c-136 -95 -379 -280 -397 -302 -16 -20 5 -5 144 104 57
45 159 121 228 169 69 48 129 91 135 96 25 24 -11 2 -110 -67z"/>
<path d="M13775 14863 c-35 -47 -39 -59 -7 -23 17 19 31 38 32 43 0 11 -4 8
-25 -20z"/>
<path d="M14308 14865 c6 -11 21 -31 33 -45 l21 -25 -19 33 c-10 19 -24 39
-32 45 -12 10 -12 9 -3 -8z"/>
<path d="M3570 14830 c-12 -16 -19 -30 -16 -30 2 0 14 14 26 30 12 17 19 30
16 30 -2 0 -14 -13 -26 -30z"/>
<path d="M4120 14823 c13 -18 25 -33 27 -33 8 0 -17 38 -33 51 -11 9 -9 2 6
-18z"/>
<path d="M13948 14833 c57 -2 147 -2 200 0 53 1 7 3 -103 3 -110 0 -154 -2
-97 -3z"/>
<path d="M3687 14803 c18 -2 50 -2 70 0 21 2 7 4 -32 4 -38 0 -55 -2 -38 -4z"/>
<path d="M3927 14803 c18 -2 50 -2 70 0 21 2 7 4 -32 4 -38 0 -55 -2 -38 -4z"/>
<path d="M13948 14763 c57 -2 147 -2 200 0 53 1 7 3 -103 3 -110 0 -154 -2
-97 -3z"/>
<path d="M13567 14675 c-38 -47 -65 -85 -60 -85 4 1 34 34 66 75 32 41 63 75
68 75 5 0 9 5 9 10 0 22 -18 6 -83 -75z"/>
<path d="M4263 14706 c12 -13 51 -60 87 -105 36 -44 68 -80 73 -81 4 0 -32 47
-79 105 -48 58 -90 105 -95 105 -4 0 2 -11 14 -24z"/>
<path d="M13858 14693 c7 -3 16 -2 19 1 4 3 -2 6 -13 5 -11 0 -14 -3 -6 -6z"/>
<path d="M13857 14623 c-3 -5 82 -8 189 -8 107 0 194 3 194 8 0 4 -85 7 -189
7 -105 0 -192 -3 -194 -7z"/>
<path d="M3668 14593 c7 -3 16 -2 19 1 4 3 -2 6 -13 5 -11 0 -14 -3 -6 -6z"/>
<path d="M13857 14553 c-3 -5 82 -8 189 -8 107 0 194 3 194 8 0 4 -85 7 -189
7 -105 0 -192 -3 -194 -7z"/>
<path d="M3752 14523 c48 -2 129 -2 180 0 51 1 12 3 -87 3 -99 0 -141 -2 -93
-3z"/>
<path d="M13491 14513 c0 -4 36 -37 79 -71 44 -35 139 -119 211 -185 159 -147
238 -211 119 -97 -166 159 -411 370 -409 353z"/>
<path d="M4349 14453 c-99 -84 -308 -275 -369 -339 -36 -37 -2 -9 75 63 77 72
178 164 225 203 47 40 94 81 105 91 34 33 11 21 -36 -18z"/>
<path d="M13853 14478 c-2 -5 85 -7 194 -6 199 2 178 6 -60 10 -71 2 -131 0
-134 -4z"/>
<path d="M14505 14463 c-47 -12 -30 -18 26 -9 73 12 170 -9 234 -51 32 -21 36
-22 22 -5 -43 48 -206 86 -282 65z"/>
<path d="M14440 14440 c-8 -5 -12 -12 -9 -15 4 -3 12 1 19 10 14 17 11 19 -10
5z"/>
<path d="M3255 14430 c3 -5 12 -7 20 -3 21 7 19 13 -6 13 -11 0 -18 -4 -14
-10z"/>
<path d="M3350 14436 c0 -2 9 -6 20 -9 11 -3 18 -1 14 4 -5 9 -34 13 -34 5z"/>
<path d="M3210 14419 c0 -5 5 -7 10 -4 6 3 10 8 10 11 0 2 -4 4 -10 4 -5 0
-10 -5 -10 -11z"/>
<path d="M3180 14410 c-9 -6 -10 -10 -3 -10 6 0 15 5 18 10 8 12 4 12 -15 0z"/>
<path d="M3435 14410 c3 -5 8 -10 11 -10 2 0 4 5 4 10 0 6 -5 10 -11 10 -5 0
-7 -4 -4 -10z"/>
<path d="M14370 14400 c-14 -11 -20 -20 -15 -19 13 0 50 28 44 33 -2 3 -15 -4
-29 -14z"/>
<path d="M3460 14406 c0 -2 16 -13 36 -25 19 -12 32 -16 29 -11 -7 11 -65 43
-65 36z"/>
<path d="M13828 14403 c6 -2 18 -2 25 0 6 3 1 5 -13 5 -14 0 -19 -2 -12 -5z"/>
<path d="M14248 14403 c7 -3 16 -2 19 1 4 3 -2 6 -13 5 -11 0 -14 -3 -6 -6z"/>
<path d="M3123 14379 c-35 -22 -46 -37 -15 -20 22 13 58 40 52 41 -3 0 -20
-10 -37 -21z"/>
<path d="M14306 14334 c-9 -8 -21 -25 -27 -37 -6 -12 -7 -17 -3 -12 45 51 57
65 51 65 -3 0 -13 -7 -21 -16z"/>
<path d="M14852 14320 c12 -16 23 -30 25 -30 2 0 -4 14 -14 30 -9 17 -21 30
-25 30 -5 0 1 -13 14 -30z"/>
<path d="M3586 14298 c16 -18 33 -37 38 -43 13 -15 -4 15 -28 48 -11 15 -24
27 -30 27 -5 0 3 -15 20 -32z"/>
<path d="M3035 14294 c-9 -15 -12 -23 -6 -20 11 7 35 46 28 46 -3 0 -12 -12
-22 -26z"/>
<path d="M3218 14283 c45 -2 119 -2 165 0 45 1 8 3 -83 3 -91 0 -128 -2 -82
-3z"/>
<path d="M3478 14283 c7 -3 16 -2 19 1 4 3 -2 6 -13 5 -11 0 -14 -3 -6 -6z"/>
<path d="M14080 14175 c-52 -52 -90 -95 -84 -95 6 0 48 38 94 85 46 47 90 90
99 95 14 8 14 9 1 10 -9 0 -58 -43 -110 -95z"/>
<path d="M3701 14238 c3 -2 49 -46 104 -98 l100 -95 -95 98 c-52 53 -99 97
-104 97 -5 0 -7 -1 -5 -2z"/>
<path d="M14483 14093 c54 -2 139 -2 190 0 51 1 7 3 -98 3 -104 0 -146 -2 -92
-3z"/>
<path d="M14141 13903 c74 -76 174 -184 222 -240 49 -57 91 -103 94 -103 4 0
-2 10 -13 23 -11 12 -53 60 -94 107 -126 144 -322 350 -333 350 -5 0 50 -62
124 -137z"/>
<path d="M14498 14023 c45 -2 119 -2 165 0 45 1 8 3 -83 3 -91 0 -128 -2 -82
-3z"/>
<path d="M3830 13970 c-19 -21 -98 -108 -175 -192 -77 -84 -156 -172 -174
-195 -19 -24 -40 -43 -47 -43 -6 0 -56 36 -110 80 -54 44 -102 80 -106 80 -5
0 39 -38 97 -85 57 -47 111 -85 118 -85 7 0 57 51 111 113 54 61 152 169 218
240 66 70 116 127 111 127 -4 -1 -24 -18 -43 -40z"/>
<path d="M14417 13953 c18 -2 50 -2 70 0 21 2 7 4 -32 4 -38 0 -55 -2 -38 -4z"/>
<path d="M14632 13952 c-7 -5 16 -7 50 -4 85 5 96 10 23 11 -33 0 -66 -3 -73
-7z"/>
<path d="M3223 13923 c54 -2 139 -2 190 0 51 1 7 3 -98 3 -104 0 -146 -2 -92
-3z"/>
<path d="M14988 13883 c7 -3 16 -2 19 1 4 3 -2 6 -13 5 -11 0 -14 -3 -6 -6z"/>
<path d="M15108 13883 c7 -3 16 -2 19 1 4 3 -2 6 -13 5 -11 0 -14 -3 -6 -6z"/>
<path d="M14898 13855 c-26 -14 -50 -30 -54 -37 -6 -10 -5 -10 7 -1 8 7 39 23
69 37 30 14 48 26 40 25 -8 0 -36 -11 -62 -24z"/>
<path d="M15151 13877 c2 -2 36 -20 74 -41 39 -20 61 -30 50 -21 -21 18 -110
65 -121 65 -4 0 -5 -1 -3 -3z"/>
<path d="M2716 13835 c-33 -13 -67 -32 -75 -41 -10 -10 3 -6 29 9 25 15 70 33
100 41 31 8 44 15 30 15 -14 0 -52 -10 -84 -24z"/>
<path d="M2883 13853 c9 -2 23 -2 30 0 6 3 -1 5 -18 5 -16 0 -22 -2 -12 -5z"/>
<path d="M2995 13814 c37 -19 69 -33 71 -31 6 5 -110 67 -126 67 -6 0 18 -16
55 -36z"/>
<path d="M3098 13843 c7 -3 16 -2 19 1 4 3 -2 6 -13 5 -11 0 -14 -3 -6 -6z"/>
<path d="M15300 13782 c0 -5 12 -19 27 -33 l27 -24 -23 33 c-23 32 -31 39 -31
24z"/>
<path d="M11685 13769 c-143 -9 -281 -23 -392 -40 l-73 -12 0 -286 c-1 -2006
1 -2646 8 -2653 33 -33 688 -60 943 -39 721 60 1164 374 1349 953 97 305 118
717 54 1038 -88 436 -355 767 -747 925 -266 107 -642 145 -1142 114z m621
-564 c110 -21 220 -64 303 -119 249 -166 374 -493 341 -897 -14 -177 -37 -284
-86 -400 -105 -254 -306 -417 -584 -475 -88 -19 -386 -27 -422 -12 -17 7 -18
62 -18 947 0 741 3 941 13 948 41 25 335 31 453 8z"/>
<path d="M14780 13758 c-29 -44 -32 -53 -6 -23 22 26 32 45 23 45 -1 0 -9 -10
-17 -22z"/>
<path d="M2570 13728 c-29 -44 -32 -53 -6 -23 22 26 32 45 23 45 -1 0 -9 -10
-17 -22z"/>
<path d="M3110 13724 c42 -49 44 -50 22 -14 -11 19 -27 36 -34 39 -7 2 -2 -9
12 -25z"/>
<path d="M14644 13708 c-19 -23 -19 -23 1 -7 11 9 27 19 35 22 13 5 13 6 -1 6
-9 1 -24 -9 -35 -21z"/>
<path d="M4550 13568 c-2 -1803 1 -2853 8 -2860 13 -13 583 -11 596 2 8 8 13
201 16 618 l5 607 484 2 c333 2 489 -1 498 -8 10 -9 13 -134 13 -612 0 -330 3
-604 8 -609 10 -10 578 -12 593 -3 5 4 9 594 9 1501 l0 1494 -305 0 -305 0 0
-237 c-1 -131 0 -385 0 -565 l1 -327 -23 -6 c-13 -3 -237 -4 -498 -3 l-475 3
-5 565 c-3 311 -7 566 -8 568 -1 1 -139 2 -307 2 l-305 0 0 -132z"/>
<path d="M14551 13635 c-79 -67 -99 -88 -46 -50 41 30 124 105 115 104 -3 0
-34 -24 -69 -54z"/>
<path d="M3008 13633 c7 -3 16 -2 19 1 4 3 -2 6 -13 5 -11 0 -14 -3 -6 -6z"/>
<path d="M14490 13517 c0 -4 39 -56 86 -115 48 -59 125 -160 172 -224 46 -65
87 -118 89 -118 9 0 -142 207 -270 370 -68 87 -77 97 -77 87z"/>
<path d="M14963 13513 c54 -2 139 -2 190 0 51 1 7 3 -98 3 -104 0 -146 -2 -92
-3z"/>
<path d="M3323 13388 c-118 -151 -238 -318 -230 -318 3 0 33 39 68 88 34 48
101 137 149 197 89 114 104 135 97 135 -2 0 -40 -46 -84 -102z"/>
<path d="M7572 13423 c3 -17 41 -18 597 -21 587 -2 621 -1 621 29 0 5 -267 9
-611 9 -576 0 -610 -1 -607 -17z"/>
<path d="M9210 13431 c0 -30 34 -31 621 -29 556 3 594 4 597 21 3 16 -31 17
-607 17 -344 0 -611 -4 -611 -9z"/>
<path d="M2667 13423 c-3 -5 26 -8 65 -8 38 -1 61 3 51 6 -24 10 -111 11 -116
2z"/>
<path d="M2933 13423 c15 -2 37 -2 50 0 12 2 0 4 -28 4 -27 0 -38 -2 -22 -4z"/>
<path d="M14903 13373 c20 -2 54 -2 75 0 20 2 3 4 -38 4 -41 0 -58 -2 -37 -4z"/>
<path d="M15108 13373 c7 -3 16 -2 19 1 4 3 -2 6 -13 5 -11 0 -14 -3 -6 -6z"/>
<path d="M2758 13343 c50 -2 134 -2 185 0 50 1 9 3 -93 3 -102 0 -143 -2 -92
-3z"/>
<path d="M2378 13233 c6 -2 18 -2 25 0 6 3 1 5 -13 5 -14 0 -19 -2 -12 -5z"/>
<path d="M2458 13233 c6 -2 18 -2 25 0 6 3 1 5 -13 5 -14 0 -19 -2 -12 -5z"/>
<path d="M15282 13214 c-24 -14 -41 -28 -39 -30 4 -4 71 36 86 52 10 10 -7 2
-47 -22z"/>
<path d="M15620 13237 c3 -3 22 -17 43 -31 41 -28 65 -35 32 -10 -21 16 -84
51 -75 41z"/>
<path d="M2258 13193 c-27 -14 -46 -28 -44 -30 2 -3 28 9 58 26 29 17 49 31
43 31 -5 0 -31 -12 -57 -27z"/>
<path d="M2589 13190 c30 -17 56 -28 59 -26 4 5 -92 56 -105 56 -4 0 16 -14
46 -30z"/>
<path d="M15728 13155 c6 -11 21 -31 33 -45 l21 -25 -19 33 c-10 19 -24 39
-32 45 -12 10 -12 9 -3 -8z"/>
<path d="M15204 13148 c-37 -63 -37 -63 -11 -33 25 28 33 45 23 45 -3 0 -8 -6
-12 -12z"/>
<path d="M15095 13140 c-3 -5 -2 -10 4 -10 5 0 13 5 16 10 3 6 2 10 -4 10 -5
0 -13 -4 -16 -10z"/>
<path d="M2153 13103 c-26 -37 -39 -63 -19 -38 9 11 23 28 32 38 8 11 13 21
11 24 -3 2 -14 -8 -24 -24z"/>
<path d="M2680 13124 c1 -5 15 -25 32 -44 l31 -35 -19 33 c-20 35 -44 61 -44
46z"/>
<path d="M14981 13064 l-94 -65 -25 28 -24 28 22 -32 c12 -18 23 -33 25 -33 6
0 195 131 195 136 0 7 0 6 -99 -62z"/>
<path d="M15283 13118 c-2 -5 85 -7 194 -6 199 2 178 6 -60 10 -71 2 -131 0
-134 -4z"/>
<path d="M2804 13102 c12 -20 205 -144 215 -138 6 4 25 28 42 54 30 46 13 31
-27 -24 l-20 -28 -108 72 c-59 40 -105 69 -102 64z"/>
<path d="M2488 13003 c7 -3 16 -2 19 1 4 3 -2 6 -13 5 -11 0 -14 -3 -6 -6z"/>
<path d="M2528 13003 c7 -3 16 -2 19 1 4 3 -2 6 -13 5 -11 0 -14 -3 -6 -6z"/>
<path d="M15340 12973 c158 -7 330 -7 330 0 0 4 -89 6 -197 5 -109 -1 -169 -3
-133 -5z"/>
<path d="M14926 12923 c53 -83 67 -103 71 -103 3 0 -3 12 -13 28 -53 82 -67
102 -71 102 -3 0 3 -12 13 -27z"/>
<path d="M7573 12915 c-3 -9 -3 -18 0 -21 3 -3 274 -5 602 -5 592 0 650 3 605
31 -9 6 -254 10 -608 10 -525 0 -593 -2 -599 -15z"/>
<path d="M9220 12920 c-46 -29 12 -32 605 -31 329 0 600 2 602 5 3 3 3 12 0
21 -6 13 -74 15 -599 15 -354 0 -599 -4 -608 -10z"/>
<path d="M2966 12888 l-18 -33 21 25 c18 22 26 40 18 40 -1 0 -11 -15 -21 -32z"/>
<path d="M15340 12903 c158 -7 328 -7 323 0 -2 4 -91 6 -196 5 -106 -1 -163
-3 -127 -5z"/>
<path d="M15280 12830 c0 -6 72 -10 196 -10 127 0 193 3 189 10 -4 6 -80 10
-196 10 -119 0 -189 -4 -189 -10z"/>
<path d="M15009 12795 c5 -11 17 -29 26 -40 l16 -20 -10 20 c-5 11 -17 29 -26
40 l-16 20 10 -20z"/>
<path d="M2598 12793 c7 -3 16 -2 19 1 4 3 -2 6 -13 5 -11 0 -14 -3 -6 -6z"/>
<path d="M2894 12778 c-4 -7 -14 -24 -22 -38 -14 -24 -13 -24 3 -5 20 24 37
55 31 55 -3 0 -8 -6 -12 -12z"/>
<path d="M15283 12758 c-2 -5 31 -8 73 -8 43 0 75 3 71 6 -8 9 -138 10 -144 2z"/>
<path d="M15527 12758 c-7 -4 24 -7 68 -6 81 1 78 5 -8 10 -27 2 -54 0 -60 -4z"/>
<path d="M2348 12723 c50 -2 134 -2 185 0 50 1 9 3 -93 3 -102 0 -143 -2 -92
-3z"/>
<path d="M15080 12680 c6 -11 13 -20 16 -20 2 0 0 9 -6 20 -6 11 -13 20 -16
20 -2 0 0 -9 6 -20z"/>
<path d="M15245 12680 c7 -12 45 -14 45 -2 0 4 -11 9 -26 10 -14 1 -23 -2 -19
-8z"/>
<path d="M15398 12683 c56 -2 148 -2 205 0 56 1 10 3 -103 3 -113 0 -159 -2
-102 -3z"/>
<path d="M15813 12613 c9 -2 25 -2 35 0 9 3 1 5 -18 5 -19 0 -27 -2 -17 -5z"/>
<path d="M2028 12573 c7 -3 16 -2 19 1 4 3 -2 6 -13 5 -11 0 -14 -3 -6 -6z"/>
<path d="M2118 12573 c7 -3 16 -2 19 1 4 3 -2 6 -13 5 -11 0 -14 -3 -6 -6z"/>
<path d="M2158 12563 c7 -3 16 -2 19 1 4 3 -2 6 -13 5 -11 0 -14 -3 -6 -6z"/>
<path d="M15625 12550 c-16 -11 -25 -20 -19 -20 11 0 64 39 54 40 -3 0 -18 -9
-35 -20z"/>
<path d="M16014 12551 c11 -11 23 -21 28 -21 14 0 -1 19 -25 31 -22 12 -22 12
-3 -10z"/>
<path d="M2191 12557 c15 -12 119 -66 119 -62 0 6 -103 65 -114 65 -5 0 -7 -1
-5 -3z"/>
<path d="M1883 12520 c-34 -20 -47 -38 -15 -21 23 13 58 40 52 41 -3 0 -20 -9
-37 -20z"/>
<path d="M15408 12486 c-109 -59 -110 -67 0 -12 50 25 92 48 92 51 0 9 -14 3
-92 -39z"/>
<path d="M15542 12464 c-12 -19 -20 -34 -18 -34 7 0 49 61 44 65 -2 2 -13 -12
-26 -31z"/>
<path d="M16099 12473 c12 -18 24 -33 27 -33 9 0 -15 37 -33 51 -12 10 -11 5
6 -18z"/>
<path d="M2400 12486 c0 -2 15 -9 33 -15 29 -10 30 -9 13 4 -18 14 -46 20 -46
11z"/>
<path d="M1808 12453 c-19 -23 -31 -43 -24 -43 2 0 14 14 26 30 23 33 22 40
-2 13z"/>
<path d="M2330 12463 c0 -5 14 -24 31 -43 l30 -35 -27 43 c-26 41 -34 50 -34
35z"/>
<path d="M2513 12434 c3 -5 35 -25 71 -44 55 -30 67 -33 78 -21 11 11 11 13 0
7 -8 -5 -43 8 -84 29 -39 21 -68 34 -65 29z"/>
<path d="M15280 12415 c-19 -10 -28 -11 -40 -2 -13 10 -13 10 -1 -5 12 -16 16
-16 42 -2 16 8 29 17 29 19 0 7 -1 6 -30 -10z"/>
<path d="M7572 12383 c3 -17 41 -18 597 -21 587 -2 621 -1 621 29 0 5 -267 9
-611 9 -576 0 -610 -1 -607 -17z"/>
<path d="M9210 12391 c0 -30 34 -31 621 -29 556 3 594 4 597 21 3 16 -31 17
-607 17 -344 0 -611 -4 -611 -9z"/>
<path d="M15678 12383 c17 -2 47 -2 65 0 17 2 3 4 -33 4 -36 0 -50 -2 -32 -4z"/>
<path d="M15907 12383 c18 -2 50 -2 70 0 21 2 7 4 -32 4 -38 0 -55 -2 -38 -4z"/>
<path d="M1880 12353 c0 -5 24 -7 52 -5 95 5 104 9 26 11 -43 0 -78 -2 -78 -6z"/>
<path d="M2120 12353 c0 -5 24 -7 52 -5 95 5 104 9 26 11 -43 0 -78 -2 -78 -6z"/>
<path d="M2255 12280 c3 -5 8 -10 11 -10 2 0 4 5 4 10 0 6 -5 10 -11 10 -5 0
-7 -4 -4 -10z"/>
<path d="M1885 12209 c-4 -5 71 -9 190 -9 124 0 194 4 190 10 -8 12 -373 12
-380 -1z"/>
<path d="M1885 12140 c-4 -6 22 -10 70 -10 48 0 74 4 70 10 -3 6 -35 10 -70
10 -35 0 -67 -4 -70 -10z"/>
<path d="M2125 12140 c-4 -6 22 -10 70 -10 48 0 74 4 70 10 -3 6 -35 10 -70
10 -35 0 -67 -4 -70 -10z"/>
<path d="M1978 12063 c57 -2 147 -2 200 0 53 1 7 3 -103 3 -110 0 -154 -2 -97
-3z"/>
<path d="M16098 11923 c12 -2 30 -2 40 0 9 3 -1 5 -23 4 -22 0 -30 -2 -17 -4z"/>
<path d="M16038 11913 c7 -3 16 -2 19 1 4 3 -2 6 -13 5 -11 0 -14 -3 -6 -6z"/>
<path d="M16233 11896 c31 -13 69 -32 83 -41 15 -9 23 -12 19 -5 -9 15 -124
70 -145 70 -8 0 11 -11 43 -24z"/>
<path d="M15932 11873 c-24 -14 -41 -27 -38 -30 2 -2 26 9 52 26 59 37 47 41
-14 4z"/>
<path d="M1768 11883 c18 -2 45 -2 60 0 15 2 0 4 -33 4 -33 0 -45 -2 -27 -4z"/>
<path d="M1913 11856 c31 -13 70 -32 85 -42 22 -15 25 -15 14 -1 -18 22 -111
67 -136 67 -12 0 5 -11 37 -24z"/>
<path d="M7572 11863 c3 -17 41 -18 597 -21 587 -2 621 -1 621 29 0 5 -267 9
-611 9 -576 0 -610 -1 -607 -17z"/>
<path d="M9210 11871 c0 -30 34 -31 621 -29 556 3 594 4 597 21 3 16 -31 17
-607 17 -344 0 -611 -4 -611 -9z"/>
<path d="M1613 11840 c-29 -17 -53 -33 -53 -36 0 -3 15 4 33 15 19 11 49 27
68 35 19 9 27 15 19 16 -8 0 -39 -14 -67 -30z"/>
<path d="M15768 11857 c-16 -6 -28 -14 -28 -18 0 -7 68 17 79 27 8 7 -24 2
-51 -9z"/>
<path d="M2134 11810 c28 -11 51 -18 53 -16 5 5 -74 36 -90 36 -6 -1 10 -10
37 -20z"/>
<path d="M15846 11795 c-9 -9 -21 -26 -28 -38 -7 -14 1 -9 21 12 31 34 38 57
7 26z"/>
<path d="M16390 11783 c13 -18 25 -33 27 -33 8 0 -17 38 -33 51 -11 9 -9 2 6
-18z"/>
<path d="M15585 11779 c-22 -10 -33 -18 -25 -18 8 0 31 8 50 19 45 25 27 24
-25 -1z"/>
<path d="M2249 11765 c29 -14 55 -24 58 -22 2 3 -15 12 -39 22 -69 28 -78 27
-19 0z"/>
<path d="M1506 11740 c-14 -22 -25 -40 -23 -40 2 0 18 18 36 40 17 22 28 40
23 40 -5 0 -21 -18 -36 -40z"/>
<path d="M2050 11762 c0 -5 10 -17 21 -28 22 -19 22 -19 10 3 -12 24 -31 39
-31 25z"/>
<path d="M2330 11726 c7 -7 13 -7 20 0 6 6 3 10 -10 10 -13 0 -16 -4 -10 -10z"/>
<path d="M16023 11623 c53 -2 141 -2 195 0 53 1 9 3 -98 3 -107 0 -151 -2 -97
-3z"/>
<path d="M1637 11443 c18 -2 50 -2 70 0 21 2 7 4 -32 4 -38 0 -55 -2 -38 -4z"/>
<path d="M1873 11443 c20 -2 54 -2 75 0 20 2 3 4 -38 4 -41 0 -58 -2 -37 -4z"/>
<path d="M7570 11346 c0 -8 4 -18 10 -21 17 -10 1192 -7 1202 3 30 30 -10 32
-608 32 -519 0 -604 -2 -604 -14z"/>
<path d="M9214 11349 c-3 -6 -2 -15 3 -20 11 -11 1186 -14 1203 -4 6 3 10 13
10 21 0 12 -85 14 -604 14 -425 0 -607 -3 -612 -11z"/>
<path d="M16281 11208 c-52 -8 -141 -48 -162 -74 -5 -7 18 3 53 21 119 63 208
63 333 0 60 -29 66 -31 40 -10 -62 52 -170 78 -264 63z"/>
<path d="M16050 11180 c0 -5 5 -10 11 -10 5 0 7 5 4 10 -3 6 -8 10 -11 10 -2
0 -4 -4 -4 -10z"/>
<path d="M1540 11171 c0 -5 16 -9 35 -9 19 0 35 4 35 9 0 5 -16 9 -35 9 -19 0
-35 -4 -35 -9z"/>
<path d="M1490 11159 c0 -5 5 -7 10 -4 6 3 10 8 10 11 0 2 -4 4 -10 4 -5 0
-10 -5 -10 -11z"/>
<path d="M1645 11160 c3 -5 8 -10 11 -10 2 0 4 5 4 10 0 6 -5 10 -11 10 -5 0
-7 -4 -4 -10z"/>
<path d="M1460 11149 c0 -5 5 -7 10 -4 6 3 10 8 10 11 0 2 -4 4 -10 4 -5 0
-10 -5 -10 -11z"/>
<path d="M1685 11150 c3 -5 14 -10 23 -10 15 0 15 2 2 10 -20 13 -33 13 -25 0z"/>
<path d="M1387 11119 c-44 -29 -68 -53 -29 -29 9 6 35 22 57 35 22 14 35 25
29 25 -6 0 -32 -14 -57 -31z"/>
<path d="M1745 11125 c11 -9 29 -21 40 -26 l20 -10 -20 16 c-11 9 -29 21 -40
26 l-20 10 20 -16z"/>
<path d="M15815 11110 c-13 -6 -15 -9 -5 -9 8 0 22 4 30 9 18 12 2 12 -25 0z"/>
<path d="M16600 11078 c10 -13 26 -32 35 -43 20 -25 9 0 -17 38 -11 15 -24 27
-29 27 -5 0 0 -10 11 -22z"/>
<path d="M16063 11078 c-17 -23 -25 -44 -9 -24 9 11 22 23 28 28 9 5 9 8 2 8
-6 0 -16 -6 -21 -12z"/>
<path d="M2098 11063 c7 -3 16 -2 19 1 4 3 -2 6 -13 5 -11 0 -14 -3 -6 -6z"/>
<path d="M1304 11048 c-4 -7 -14 -24 -23 -38 -15 -26 -11 -23 28 23 14 15 19
27 13 27 -6 0 -14 -6 -18 -12z"/>
<path d="M1830 11056 c0 -4 11 -21 25 -38 14 -16 25 -26 25 -21 0 11 -49 70
-50 59z"/>
<path d="M1628 10943 c7 -3 16 -2 19 1 4 3 -2 6 -13 5 -11 0 -14 -3 -6 -6z"/>
<path d="M7573 10825 c-3 -9 -3 -18 0 -21 10 -10 1199 -6 1209 4 30 30 -9 32
-603 32 -531 0 -600 -2 -606 -15z"/>
<path d="M9214 10829 c-3 -6 -2 -15 4 -21 13 -13 1191 -13 1205 1 5 5 6 14 3
20 -10 15 -1202 15 -1212 0z"/>
<path d="M1482 10803 c48 -2 129 -2 180 0 51 1 12 3 -87 3 -99 0 -141 -2 -93
-3z"/>
<path d="M16243 10763 c54 -2 139 -2 190 0 51 1 7 3 -98 3 -104 0 -146 -2 -92
-3z"/>
<path d="M1624 10728 c-3 -5 28 -7 68 -7 75 2 69 6 -15 11 -27 2 -51 0 -53 -4z"/>
<path d="M1423 10723 c20 -2 54 -2 75 0 20 2 3 4 -38 4 -41 0 -58 -2 -37 -4z"/>
<path d="M1368 10573 c6 -2 18 -2 25 0 6 3 1 5 -13 5 -14 0 -19 -2 -12 -5z"/>
<path d="M1758 10573 c6 -2 18 -2 25 0 6 3 1 5 -13 5 -14 0 -19 -2 -12 -5z"/>
<path d="M16228 10473 c7 -3 16 -2 19 1 4 3 -2 6 -13 5 -11 0 -14 -3 -6 -6z"/>
<path d="M16428 10473 c6 -2 18 -2 25 0 6 3 1 5 -13 5 -14 0 -19 -2 -12 -5z"/>
<path d="M16528 10473 c7 -3 16 -2 19 1 4 3 -2 6 -13 5 -11 0 -14 -3 -6 -6z"/>
<path d="M16178 10463 c7 -3 16 -2 19 1 4 3 -2 6 -13 5 -11 0 -14 -3 -6 -6z"/>
<path d="M1378 10433 c7 -3 16 -2 19 1 4 3 -2 6 -13 5 -11 0 -14 -3 -6 -6z"/>
<path d="M1468 10433 c7 -3 16 -2 19 1 4 3 -2 6 -13 5 -11 0 -14 -3 -6 -6z"/>
<path d="M16038 10433 c7 -3 16 -2 19 1 4 3 -2 6 -13 5 -11 0 -14 -3 -6 -6z"/>
<path d="M16650 10437 c0 -3 12 -12 26 -22 15 -9 23 -12 20 -6 -7 11 -46 35
-46 28z"/>
<path d="M16284 10414 c-18 -14 -18 -15 4 -4 12 6 22 13 22 15 0 8 -5 6 -26
-11z"/>
<path d="M1550 10410 c8 -5 20 -10 25 -10 6 0 3 5 -5 10 -8 5 -19 10 -25 10
-5 0 -3 -5 5 -10z"/>
<path d="M1758 10413 c7 -3 16 -2 19 1 4 3 -2 6 -13 5 -11 0 -14 -3 -6 -6z"/>
<path d="M1238 10384 c-16 -8 -28 -17 -28 -19 0 -10 16 -4 40 15 30 23 25 25
-12 4z"/>
<path d="M1590 10396 c0 -3 14 -12 30 -21 17 -9 30 -13 30 -11 0 3 -13 12 -30
21 -16 9 -30 13 -30 11z"/>
<path d="M8253 9651 c-700 -703 -743 -748 -743 -781 0 -33 43 -78 738 -773
405 -405 745 -737 753 -737 9 0 351 334 760 742 635 634 743 746 745 772 2 29
-56 89 -744 779 -411 411 -751 746 -757 745 -5 0 -344 -337 -752 -747z"/>
<path d="M16201 10331 c-12 -16 -21 -33 -21 -37 0 -4 11 7 25 26 14 19 25 35
25 37 0 9 -11 0 -29 -26z"/>
<path d="M16743 10348 c9 -7 24 -22 32 -33 12 -15 12 -11 -1 13 -10 17 -25 32
-33 32 -12 0 -12 -2 2 -12z"/>
<path d="M1153 10303 c-26 -37 -39 -63 -19 -38 9 11 23 28 32 38 8 11 13 21
11 24 -3 2 -14 -8 -24 -24z"/>
<path d="M1680 10323 c0 -5 12 -20 26 -34 24 -21 26 -22 16 -3 -13 25 -42 50
-42 37z"/>
<path d="M16307 10248 c2 -5 28 -8 58 -8 30 0 56 3 58 8 3 4 -23 7 -58 7 -35
0 -61 -3 -58 -7z"/>
<path d="M16543 10248 c-2 -5 23 -8 56 -8 33 0 62 3 64 8 3 4 -22 7 -55 7 -33
0 -62 -3 -65 -7z"/>
<path d="M1273 10213 c20 -2 54 -2 75 0 20 2 3 4 -38 4 -41 0 -58 -2 -37 -4z"/>
<path d="M1517 10213 c18 -2 50 -2 70 0 21 2 7 4 -32 4 -38 0 -55 -2 -38 -4z"/>
<path d="M16325 10185 c24 -8 116 -12 103 -4 -7 5 -35 8 -63 8 -27 0 -45 -2
-40 -4z"/>
<path d="M16542 10181 c-7 -4 13 -6 45 -4 79 6 89 11 23 12 -30 0 -61 -3 -68
-8z"/>
<path d="M1247 10143 c-3 -5 16 -7 41 -5 73 5 82 10 20 11 -31 0 -59 -2 -61
-6z"/>
<path d="M1487 10143 c-3 -5 26 -8 63 -8 37 0 66 3 63 8 -2 4 -31 7 -63 7 -32
0 -61 -3 -63 -7z"/>
<path d="M4214 10069 c-3 -6 -2 -15 3 -20 14 -14 2840 -16 2854 -2 6 6 8 16 5
22 -10 16 -2852 16 -2862 0z"/>
<path d="M10914 10069 c-19 -32 14 -34 613 -31 459 1 598 5 604 14 5 7 3 16
-4 20 -20 13 -1205 10 -1213 -3z"/>
<path d="M12564 10069 c-3 -6 -2 -15 4 -21 12 -12 1193 -11 1206 2 28 28 -17
30 -604 30 -420 0 -601 -3 -606 -11z"/>
<path d="M1343 10063 c54 -2 139 -2 190 0 51 1 7 3 -98 3 -104 0 -146 -2 -92
-3z"/>
<path d="M16285 9750 c-18 -8 -18 -9 5 -8 14 0 36 4 50 8 24 8 24 8 -5 8 -16
0 -39 -3 -50 -8z"/>
<path d="M16185 9740 c-18 -8 -18 -9 5 -8 14 0 36 4 50 8 24 8 24 8 -5 8 -16
0 -39 -3 -50 -8z"/>
<path d="M16090 9730 c-12 -8 -12 -10 5 -9 11 0 29 4 40 9 18 8 18 9 -5 9 -14
0 -32 -4 -40 -9z"/>
<path d="M16505 9730 c-3 -5 -2 -10 4 -10 5 0 13 5 16 10 3 6 2 10 -4 10 -5 0
-13 -4 -16 -10z"/>
<path d="M16607 9729 c7 -7 15 -10 18 -7 3 3 -2 9 -12 12 -14 6 -15 5 -6 -5z"/>
<path d="M16644 9721 c3 -5 18 -12 33 -16 16 -3 45 -18 66 -31 22 -14 41 -23
44 -21 8 9 -119 77 -143 77 -3 0 -3 -4 0 -9z"/>
<path d="M1560 9716 c0 -10 28 -13 41 -5 10 6 7 9 -13 9 -16 0 -28 -2 -28 -4z"/>
<path d="M1673 9703 c9 -2 25 -2 35 0 9 3 1 5 -18 5 -19 0 -27 -2 -17 -5z"/>
<path d="M16377 9685 c-20 -14 -37 -28 -37 -30 0 -11 17 -4 36 13 10 10 28 24
39 30 11 6 15 12 10 12 -6 0 -27 -11 -48 -25z"/>
<path d="M1305 9690 c4 -6 11 -8 16 -5 14 9 11 15 -7 15 -8 0 -12 -5 -9 -10z"/>
<path d="M1395 9690 c3 -5 8 -10 11 -10 2 0 4 5 4 10 0 6 -5 10 -11 10 -5 0
-7 -4 -4 -10z"/>
<path d="M1773 9693 c9 -2 25 -2 35 0 9 3 1 5 -18 5 -19 0 -27 -2 -17 -5z"/>
<path d="M1470 9674 c19 -9 50 -25 68 -36 17 -11 32 -17 32 -14 0 8 -82 53
-110 60 -16 4 -12 0 10 -10z"/>
<path d="M1178 9650 c-20 -11 -40 -25 -43 -31 -8 -12 39 11 70 35 27 21 18 19
-27 -4z"/>
<path d="M16280 9590 c-12 -16 -19 -30 -16 -30 2 0 14 14 26 30 12 17 19 30
16 30 -2 0 -14 -13 -26 -30z"/>
<path d="M16830 9595 c13 -14 25 -25 27 -25 2 0 -4 11 -13 25 -9 14 -21 25
-27 25 -6 0 0 -11 13 -25z"/>
<path d="M1084 9568 c-37 -63 -37 -63 -11 -33 25 28 33 45 23 45 -3 0 -8 -6
-12 -12z"/>
<path d="M1635 9546 c10 -14 19 -26 22 -26 7 0 -17 39 -28 46 -6 3 -3 -5 6
-20z"/>
<path d="M4217 9553 c-34 -33 -38 -33 1428 -33 1425 0 1435 0 1435 20 0 20
-10 20 -1428 20 -786 0 -1432 -3 -1435 -7z"/>
<path d="M10912 9543 c3 -17 41 -18 602 -21 591 -2 638 0 620 29 -3 5 -271 9
-615 9 -576 0 -610 -1 -607 -17z"/>
<path d="M12562 9543 c3 -17 40 -18 608 -18 568 0 605 1 608 18 3 16 -31 17
-608 17 -577 0 -611 -1 -608 -17z"/>
<path d="M1203 9463 c20 -2 54 -2 75 0 20 2 3 4 -38 4 -41 0 -58 -2 -37 -4z"/>
<path d="M1437 9463 c18 -2 50 -2 70 0 21 2 7 4 -32 4 -38 0 -55 -2 -38 -4z"/>
<path d="M16418 9433 c18 -2 45 -2 60 0 15 2 0 4 -33 4 -33 0 -45 -2 -27 -4z"/>
<path d="M16643 9433 c20 -2 54 -2 75 0 20 2 3 4 -38 4 -41 0 -58 -2 -37 -4z"/>
<path d="M16473 9363 c54 -2 139 -2 190 0 51 1 7 3 -98 3 -104 0 -146 -2 -92
-3z"/>
<path d="M1263 9323 c54 -2 139 -2 190 0 51 1 7 3 -98 3 -104 0 -146 -2 -92
-3z"/>
<path d="M1148 9103 c7 -3 16 -2 19 1 4 3 -2 6 -13 5 -11 0 -14 -3 -6 -6z"/>
<path d="M4212 9023 c3 -17 78 -18 1433 -18 1264 0 1430 2 1430 15 0 13 -167
15 -1433 18 -1362 2 -1433 1 -1430 -15z"/>
<path d="M10915 9030 c-3 -5 -3 -14 0 -20 4 -6 218 -10 610 -10 508 0 604 2
608 14 3 8 3 17 0 20 -11 11 -1211 7 -1218 -4z"/>
<path d="M12564 9029 c-3 -6 -2 -15 3 -20 5 -5 253 -8 608 -7 562 3 600 4 603
21 3 16 -31 17 -602 17 -425 0 -607 -3 -612 -11z"/>
<path d="M16188 9023 c39 -2 105 -2 145 0 39 1 7 3 -73 3 -80 0 -112 -2 -72
-3z"/>
<path d="M1592 8983 c37 -2 100 -2 140 0 40 1 10 3 -67 3 -77 0 -110 -1 -73
-3z"/>
<path d="M16523 8983 c9 -2 23 -2 30 0 6 3 -1 5 -18 5 -16 0 -22 -2 -12 -5z"/>
<path d="M16588 8983 c6 -2 18 -2 25 0 6 3 1 5 -13 5 -14 0 -19 -2 -12 -5z"/>
<path d="M16393 8940 c-28 -16 -55 -35 -59 -42 -6 -11 -5 -11 8 0 8 7 40 26
69 42 30 16 50 30 44 30 -5 0 -33 -14 -62 -30z"/>
<path d="M16715 8947 c50 -35 75 -49 75 -44 0 9 -72 57 -85 57 -5 0 -1 -6 10
-13z"/>
<path d="M1328 8943 c18 -2 45 -2 60 0 15 2 0 4 -33 4 -33 0 -45 -2 -27 -4z"/>
<path d="M1438 8933 c7 -3 16 -2 19 1 4 3 -2 6 -13 5 -11 0 -14 -3 -6 -6z"/>
<path d="M1177 8900 c-65 -41 -59 -47 11 -8 69 38 69 38 51 38 -8 0 -36 -13
-62 -30z"/>
<path d="M1525 8895 c32 -20 60 -33 63 -31 6 7 -90 66 -107 66 -8 0 11 -16 44
-35z"/>
<path d="M16284 8845 c-15 -20 -25 -37 -23 -39 2 -3 17 13 32 35 35 49 28 52
-9 4z"/>
<path d="M16840 8843 c13 -18 25 -33 27 -33 8 0 -17 38 -33 51 -11 9 -9 2 6
-18z"/>
<path d="M1082 8813 c-26 -38 -34 -53 -29 -53 2 0 16 18 31 40 29 45 28 56 -2
13z"/>
<path d="M16745 8830 c3 -5 8 -10 11 -10 2 0 4 5 4 10 0 6 -5 10 -11 10 -5 0
-7 -4 -4 -10z"/>
<path d="M1630 8804 c42 -49 44 -50 22 -14 -11 19 -27 36 -34 39 -7 2 -2 -9
12 -25z"/>
<path d="M16377 8763 c-3 -5 82 -8 189 -8 107 0 194 3 194 8 0 4 -85 7 -189 7
-105 0 -192 -3 -194 -7z"/>
<path d="M16375 8690 c-4 -7 62 -10 190 -10 128 0 194 3 190 10 -4 6 -78 10
-190 10 -112 0 -186 -4 -190 -10z"/>
<path d="M1283 8653 c48 -2 125 -2 170 0 45 1 6 3 -88 3 -93 0 -130 -2 -82 -3z"/>
<path d="M16376 8622 c-2 -4 14 -6 37 -4 68 5 76 10 20 11 -28 0 -54 -2 -57
-7z"/>
<path d="M16495 8620 c3 -5 11 -10 16 -10 6 0 7 5 4 10 -3 6 -11 10 -16 10 -6
0 -7 -4 -4 -10z"/>
<path d="M16620 8620 c-9 -6 -10 -10 -3 -10 6 0 15 5 18 10 8 12 4 12 -15 0z"/>
<path d="M16678 8623 c7 -3 16 -2 19 1 4 3 -2 6 -13 5 -11 0 -14 -3 -6 -6z"/>
<path d="M16730 8626 c0 -2 7 -7 16 -10 8 -3 12 -2 9 4 -6 10 -25 14 -25 6z"/>
<path d="M16377 8548 c-7 -4 78 -8 187 -8 110 0 197 3 194 6 -9 8 -368 10
-381 2z"/>
<path d="M4216 8511 c-17 -7 -17 -8 -2 -24 16 -16 66 -17 600 -17 487 0 585 2
602 14 10 8 15 18 11 23 -11 10 -1185 15 -1211 4z"/>
<path d="M5873 8513 c-18 -7 -16 -30 3 -37 20 -8 1152 -8 1182 0 25 7 29 29 6
38 -19 7 -1173 7 -1191 -1z"/>
<path d="M10928 8513 c-23 -6 -23 -20 1 -33 13 -7 475 -10 1425 -10 1307 0
1406 1 1422 17 15 16 15 17 -2 24 -20 8 -2817 10 -2846 2z"/>
<path d="M1197 8503 c18 -2 50 -2 70 0 21 2 7 4 -32 4 -38 0 -55 -2 -38 -4z"/>
<path d="M1437 8503 c18 -2 50 -2 70 0 21 2 7 4 -32 4 -38 0 -55 -2 -38 -4z"/>
<path d="M16098 8323 c6 -2 18 -2 25 0 6 3 1 5 -13 5 -14 0 -19 -2 -12 -5z"/>
<path d="M16168 8313 c12 -2 32 -2 45 0 12 2 2 4 -23 4 -25 0 -35 -2 -22 -4z"/>
<path d="M16268 8303 c12 -2 30 -2 40 0 9 3 -1 5 -23 4 -22 0 -30 -2 -17 -4z"/>
<path d="M16338 8293 c7 -3 16 -2 19 1 4 3 -2 6 -13 5 -11 0 -14 -3 -6 -6z"/>
<path d="M1737 8279 c-38 -4 -71 -10 -75 -13 -8 -9 151 5 168 15 18 10 6 10
-93 -2z"/>
<path d="M1590 8261 c0 -4 11 -6 25 -3 14 2 25 6 25 8 0 2 -11 4 -25 4 -14 0
-25 -4 -25 -9z"/>
<path d="M16455 8240 c-3 -5 -2 -10 4 -10 5 0 13 5 16 10 3 6 2 10 -4 10 -5 0
-13 -4 -16 -10z"/>
<path d="M16515 8240 c3 -5 11 -10 16 -10 6 0 7 5 4 10 -3 6 -11 10 -16 10 -6
0 -7 -4 -4 -10z"/>
<path d="M16575 8230 c3 -5 8 -10 11 -10 2 0 4 5 4 10 0 6 -5 10 -11 10 -5 0
-7 -4 -4 -10z"/>
<path d="M16605 8220 c3 -5 8 -10 11 -10 2 0 4 5 4 10 0 6 -5 10 -11 10 -5 0
-7 -4 -4 -10z"/>
<path d="M16645 8205 c11 -9 34 -23 50 -31 28 -14 29 -14 10 1 -11 9 -33 23
-50 31 -28 14 -29 14 -10 -1z"/>
<path d="M1398 8203 c6 -2 18 -2 25 0 6 3 1 5 -13 5 -14 0 -19 -2 -12 -5z"/>
<path d="M1448 8203 c6 -2 18 -2 25 0 6 3 1 5 -13 5 -14 0 -19 -2 -12 -5z"/>
<path d="M16302 8189 c-18 -12 -31 -24 -28 -26 5 -5 66 35 66 43 0 6 -3 5 -38
-17z"/>
<path d="M1541 8187 c15 -12 119 -66 119 -62 0 6 -103 65 -114 65 -5 0 -7 -1
-5 -3z"/>
<path d="M1258 8160 c-20 -11 -40 -25 -44 -32 -4 -6 10 -1 32 12 67 40 75 53
12 20z"/>
<path d="M16215 8103 l-18 -28 27 24 c28 26 31 31 17 31 -5 0 -17 -12 -26 -27z"/>
<path d="M16767 8097 c15 -19 30 -33 32 -31 6 5 -40 64 -51 64 -5 0 3 -15 19
-33z"/>
<path d="M1150 8060 c-12 -16 -19 -30 -16 -30 2 0 14 14 26 30 12 17 19 30 16
30 -2 0 -14 -13 -26 -30z"/>
<path d="M1690 8082 c0 -5 10 -17 22 -28 l21 -19 -18 28 c-18 28 -25 33 -25
19z"/>
<path d="M16403 8013 c54 -2 139 -2 190 0 51 1 7 3 -98 3 -104 0 -146 -2 -92
-3z"/>
<path d="M4212 7973 c3 -17 40 -18 608 -18 568 0 605 1 608 18 3 16 -31 17
-608 17 -577 0 -611 -1 -608 -17z"/>
<path d="M5860 7970 c11 -20 19 -20 613 -18 564 3 602 4 605 21 3 16 -31 17
-613 17 -613 0 -616 0 -605 -20z"/>
<path d="M10912 7973 c3 -17 79 -18 1433 -18 1354 0 1430 1 1433 18 3 16 -70
17 -1433 17 -1363 0 -1436 -1 -1433 -17z"/>
<path d="M1343 7973 c54 -2 139 -2 190 0 51 1 7 3 -98 3 -104 0 -146 -2 -92
-3z"/>
<path d="M16403 7943 c48 -2 126 -2 175 0 48 1 8 3 -88 3 -96 0 -136 -2 -87
-3z"/>
<path d="M1258 7763 c7 -3 16 -2 19 1 4 3 -2 6 -13 5 -11 0 -14 -3 -6 -6z"/>
<path d="M16025 7620 c3 -5 8 -10 11 -10 2 0 4 5 4 10 0 6 -5 10 -11 10 -5 0
-7 -4 -4 -10z"/>
<path d="M16075 7610 c4 -6 11 -8 16 -5 14 9 11 15 -7 15 -8 0 -12 -5 -9 -10z"/>
<path d="M16128 7603 c7 -3 16 -2 19 1 4 3 -2 6 -13 5 -11 0 -14 -3 -6 -6z"/>
<path d="M16168 7593 c6 -2 18 -2 25 0 6 3 1 5 -13 5 -14 0 -19 -2 -12 -5z"/>
<path d="M1888 7583 c6 -2 18 -2 25 0 6 3 1 5 -13 5 -14 0 -19 -2 -12 -5z"/>
<path d="M16225 7580 c27 -12 43 -12 25 0 -8 5 -22 9 -30 9 -10 0 -8 -3 5 -9z"/>
<path d="M1838 7573 c6 -2 18 -2 25 0 6 3 1 5 -13 5 -14 0 -19 -2 -12 -5z"/>
<path d="M1731 7554 c-51 -13 -77 -25 -55 -23 23 1 147 37 129 37 -11 1 -45
-6 -74 -14z"/>
<path d="M16288 7503 c7 -3 16 -2 19 1 4 3 -2 6 -13 5 -11 0 -14 -3 -6 -6z"/>
<path d="M16398 7503 c6 -2 18 -2 25 0 6 3 1 5 -13 5 -14 0 -19 -2 -12 -5z"/>
<path d="M16190 7469 c-30 -16 -62 -37 -70 -46 -13 -14 -12 -14 10 0 14 10 52
31 85 47 33 17 53 30 45 30 -8 0 -40 -14 -70 -31z"/>
<path d="M16524 7455 c32 -19 61 -35 64 -35 9 0 -42 37 -75 54 -56 28 -49 17
11 -19z"/>
<path d="M1507 7470 c-42 -11 -133 -55 -141 -69 -3 -5 26 7 65 27 64 33 79 37
148 37 67 0 84 -4 149 -37 40 -20 68 -31 62 -24 -5 8 -37 25 -69 40 -65 29
-156 40 -214 26z"/>
<path d="M4213 7465 c-3 -9 -4 -17 -2 -19 2 -2 273 -6 601 -7 601 -4 634 -2
614 30 -5 8 -186 11 -607 11 -531 0 -600 -2 -606 -15z"/>
<path d="M5863 7465 c-3 -9 -3 -19 1 -22 10 -11 1197 -6 1208 5 30 30 -10 32
-603 32 -531 0 -600 -2 -606 -15z"/>
<path d="M10914 7469 c-3 -6 -2 -15 4 -21 11 -11 2849 -14 2860 -4 2 3 2 12
-1 21 -6 13 -156 15 -1431 15 -1015 0 -1427 -3 -1432 -11z"/>
<path d="M16075 7373 l-17 -28 23 22 c12 12 20 25 17 28 -3 3 -13 -7 -23 -22z"/>
<path d="M16626 7365 c34 -45 41 -45 12 0 -13 19 -27 35 -31 35 -4 0 4 -16 19
-35z"/>
<path d="M1308 7343 c-18 -21 -31 -43 -25 -43 2 0 13 14 25 30 25 33 24 41 0
13z"/>
<path d="M1850 7333 c13 -18 25 -33 27 -33 8 0 -17 38 -33 51 -11 9 -9 2 6
-18z"/>
<path d="M16198 7283 c23 -2 59 -2 80 0 20 2 1 4 -43 4 -44 0 -61 -2 -37 -4z"/>
<path d="M16433 7283 c20 -2 54 -2 75 0 20 2 3 4 -38 4 -41 0 -58 -2 -37 -4z"/>
<path d="M16160 7209 c0 -5 5 -7 10 -4 6 3 10 8 10 11 0 2 -4 4 -10 4 -5 0
-10 -5 -10 -11z"/>
<path d="M16160 7143 c0 -5 33 -8 74 -8 41 0 72 3 69 8 -2 4 -35 7 -74 7 -38
0 -69 -3 -69 -7z"/>
<path d="M16406 7141 c-3 -4 6 -6 19 -3 14 2 25 6 25 8 0 8 -39 4 -44 -5z"/>
<path d="M16461 7146 c10 -8 89 -13 83 -5 -3 5 -24 9 -46 9 -23 0 -39 -2 -37
-4z"/>
<path d="M1668 7103 c17 -2 47 -2 65 0 17 2 3 4 -33 4 -36 0 -50 -2 -32 -4z"/>
<path d="M16160 7073 c0 -5 87 -8 194 -8 107 0 192 3 189 8 -2 4 -89 7 -194 7
-104 0 -189 -3 -189 -7z"/>
<path d="M5660 7053 c-369 -38 -654 -220 -791 -506 -65 -138 -82 -218 -82
-397 0 -182 17 -262 83 -389 109 -210 299 -360 629 -497 211 -88 298 -135 368
-199 81 -73 107 -133 101 -227 -9 -120 -81 -203 -215 -250 -60 -20 -86 -23
-218 -23 -107 1 -175 6 -235 19 -107 23 -263 77 -353 122 -38 20 -71 33 -74
31 -7 -8 -123 -531 -123 -559 0 -33 19 -47 127 -92 172 -73 412 -116 645 -116
390 0 704 125 891 355 57 71 138 234 162 325 23 89 31 328 15 427 -15 97 -56
213 -101 289 -19 32 -74 100 -124 150 -130 133 -227 191 -539 325 -321 138
-416 220 -416 359 0 137 112 235 300 262 145 20 370 -15 531 -83 128 -54 113
-72 185 216 35 138 64 265 64 282 0 39 -25 54 -165 101 -197 66 -464 96 -665
75z"/>
<path d="M11230 6893 c-2 -1369 2 -2849 8 -2855 11 -11 533 -11 544 0 11 11
10 1550 -1 1872 -9 235 -4 292 18 239 6 -13 48 -114 95 -224 46 -110 118 -272
158 -360 93 -199 736 -1486 758 -1515 15 -20 23 -21 325 -20 170 0 313 4 317
8 7 7 9 825 8 2775 l0 217 -280 0 -280 0 0 -67 c-3 -1081 4 -1502 30 -1862 6
-74 9 -135 7 -137 -2 -2 -41 89 -87 203 -161 404 -237 562 -727 1513 l-178
345 -358 3 -357 2 0 -137z"/>
<path d="M16163 6998 c-2 -5 31 -8 73 -8 43 0 75 3 71 6 -9 9 -138 10 -144 2z"/>
<path d="M16438 6993 c23 -2 59 -2 80 0 20 2 1 4 -43 4 -44 0 -61 -2 -37 -4z"/>
<path d="M15830 6939 c0 -5 5 -7 10 -4 6 3 10 8 10 11 0 2 -4 4 -10 4 -5 0
-10 -5 -10 -11z"/>
<path d="M15905 6920 c11 -5 27 -9 35 -9 9 0 8 4 -5 9 -11 5 -27 9 -35 9 -9 0
-8 -4 5 -9z"/>
<path d="M16550 6920 c-9 -6 -10 -10 -3 -10 6 0 15 5 18 10 8 12 4 12 -15 0z"/>
<path d="M1985 6876 c-55 -18 -109 -38 -120 -45 l-20 -13 20 8 c11 3 72 24
135 44 63 21 108 38 100 38 -8 0 -60 -14 -115 -32z"/>
<path d="M16049 6875 c18 -8 36 -15 40 -15 13 1 -45 29 -59 29 -8 0 0 -6 19
-14z"/>
<path d="M16048 6786 c-39 -11 -128 -59 -128 -69 0 -2 29 11 65 29 113 57 202
55 323 -7 55 -28 56 -28 27 -4 -37 31 -143 65 -199 64 -22 0 -62 -6 -88 -13z"/>
<path d="M1730 6751 c0 -5 9 -7 20 -4 11 3 20 7 20 9 0 2 -9 4 -20 4 -11 0
-20 -4 -20 -9z"/>
<path d="M1830 6756 c0 -2 7 -6 15 -10 8 -3 15 -1 15 4 0 6 -7 10 -15 10 -8 0
-15 -2 -15 -4z"/>
<path d="M1911 6737 c17 -14 98 -54 94 -46 -7 10 -79 49 -91 49 -4 0 -5 -1 -3
-3z"/>
<path d="M1608 6704 c-52 -34 -48 -40 5 -8 50 32 53 34 41 33 -5 0 -26 -11
-46 -25z"/>
<path d="M7593 6673 c-28 -5 -29 -19 -4 -33 21 -11 2806 -15 2835 -4 24 9 19
31 -8 38 -26 6 -2788 6 -2823 -1z"/>
<path d="M15860 6658 c-23 -35 -34 -54 -24 -43 44 49 56 65 48 65 -5 0 -16
-10 -24 -22z"/>
<path d="M16408 6651 c17 -18 32 -37 32 -43 0 -6 3 -9 6 -6 8 9 -26 57 -50 70
-13 7 -9 0 12 -21z"/>
<path d="M2050 6645 c0 -3 14 -24 30 -47 37 -51 40 -42 4 12 -25 38 -34 47
-34 35z"/>
<path d="M1523 6628 c-31 -40 -27 -50 5 -13 12 14 18 25 13 25 -5 0 -13 -6
-18 -12z"/>
<path d="M15983 6563 c20 -2 54 -2 75 0 20 2 3 4 -38 4 -41 0 -58 -2 -37 -4z"/>
<path d="M16217 6563 c18 -2 50 -2 70 0 21 2 7 4 -32 4 -38 0 -55 -2 -38 -4z"/>
<path d="M15956 6421 c-4 -5 3 -7 14 -4 23 6 26 13 6 13 -8 0 -17 -4 -20 -9z"/>
<path d="M16008 6423 c7 -3 16 -2 19 1 4 3 -2 6 -13 5 -11 0 -14 -3 -6 -6z"/>
<path d="M16217 6423 c18 -2 50 -2 70 0 21 2 7 4 -32 4 -38 0 -55 -2 -38 -4z"/>
<path d="M1637 6383 c18 -2 50 -2 70 0 21 2 7 4 -32 4 -38 0 -55 -2 -38 -4z"/>
<path d="M1877 6383 c18 -2 50 -2 70 0 21 2 7 4 -32 4 -38 0 -55 -2 -38 -4z"/>
<path d="M16053 6353 c48 -2 125 -2 170 0 45 1 6 3 -88 3 -93 0 -130 -2 -82
-3z"/>
<path d="M15650 6255 c14 -8 30 -14 35 -14 6 0 -1 6 -15 14 -14 8 -29 14 -35
14 -5 0 1 -6 15 -14z"/>
<path d="M2318 6233 c7 -3 16 -2 19 1 4 3 -2 6 -13 5 -11 0 -14 -3 -6 -6z"/>
<path d="M15749 6215 c29 -14 55 -24 58 -22 2 3 -15 12 -39 22 -69 28 -78 27
-19 0z"/>
<path d="M2176 6179 c-71 -30 -100 -47 -57 -34 35 11 148 64 136 63 -5 0 -41
-13 -79 -29z"/>
<path d="M7570 6146 c0 -8 4 -18 10 -21 13 -8 2837 -8 2850 0 6 3 10 13 10 21
0 12 -192 14 -1435 14 -1243 0 -1435 -2 -1435 -14z"/>
<path d="M15843 6103 c9 -2 23 -2 30 0 6 3 -1 5 -18 5 -16 0 -22 -2 -12 -5z"/>
<path d="M15667 6049 c-44 -29 -68 -53 -29 -29 9 6 35 22 57 35 22 14 35 25
29 25 -6 0 -32 -14 -57 -31z"/>
<path d="M16021 6052 c67 -42 69 -44 69 -37 0 8 -91 65 -104 65 -5 0 10 -13
35 -28z"/>
<path d="M2028 6063 c6 -2 18 -2 25 0 6 3 1 5 -13 5 -14 0 -19 -2 -12 -5z"/>
<path d="M2118 6063 c7 -3 16 -2 19 1 4 3 -2 6 -13 5 -11 0 -14 -3 -6 -6z"/>
<path d="M2194 6045 c21 -8 53 -24 72 -36 19 -11 34 -18 34 -15 0 10 -85 55
-115 60 -24 5 -23 3 9 -9z"/>
<path d="M1902 6019 c-18 -12 -31 -24 -28 -26 2 -3 22 7 43 21 45 31 32 35
-15 5z"/>
<path d="M15583 5978 c-23 -30 -24 -41 -2 -21 12 12 20 25 17 28 -3 3 -10 0
-15 -7z"/>
<path d="M16120 5964 c42 -49 44 -50 22 -14 -11 19 -27 36 -34 39 -7 2 -2 -9
12 -25z"/>
<path d="M1819 5943 c-29 -35 -41 -53 -36 -53 2 0 17 16 31 35 28 36 31 49 5
18z"/>
<path d="M2359 5923 c12 -18 24 -33 27 -33 9 0 -15 37 -33 51 -12 10 -11 5 6
-18z"/>
<path d="M1993 5833 c54 -2 139 -2 190 0 51 1 7 3 -98 3 -104 0 -146 -2 -92
-3z"/>
<path d="M15713 5733 c15 -2 37 -2 50 0 12 2 0 4 -28 4 -27 0 -38 -2 -22 -4z"/>
<path d="M15948 5733 c18 -2 45 -2 60 0 15 2 0 4 -33 4 -33 0 -45 -2 -27 -4z"/>
<path d="M1928 5693 c17 -2 47 -2 65 0 17 2 3 4 -33 4 -36 0 -50 -2 -32 -4z"/>
<path d="M2168 5693 c17 -2 47 -2 65 0 17 2 3 4 -33 4 -36 0 -50 -2 -32 -4z"/>
<path d="M7582 5632 c-7 -5 -10 -15 -7 -23 4 -12 208 -14 1430 -13 784 1 1428
4 1431 7 4 3 4 13 1 22 -6 13 -155 15 -1424 15 -780 0 -1424 -4 -1431 -8z"/>
<path d="M15409 5579 c62 -33 115 -59 116 -57 5 4 -209 118 -221 118 -5 0 42
-28 105 -61z"/>
<path d="M2620 5600 c-13 -8 -12 -10 3 -10 9 0 17 5 17 10 0 12 -1 12 -20 0z"/>
<path d="M2585 5580 c-3 -5 -1 -10 4 -10 6 0 11 5 11 10 0 6 -2 10 -4 10 -3 0
-8 -4 -11 -10z"/>
<path d="M2486 5529 c-43 -22 -76 -42 -73 -45 4 -5 157 75 157 82 0 6 3 7 -84
-37z"/>
<path d="M15498 5443 c6 -2 18 -2 25 0 6 3 1 5 -13 5 -14 0 -19 -2 -12 -5z"/>
<path d="M15610 5425 c0 -2 14 -10 30 -19 17 -8 46 -24 65 -36 49 -30 44 -19
-5 14 -40 26 -90 49 -90 41z"/>
<path d="M15317 5390 c-26 -16 -47 -32 -47 -35 0 -7 30 9 77 41 51 34 26 30
-30 -6z"/>
<path d="M2378 5403 c7 -3 16 -2 19 1 4 3 -2 6 -13 5 -11 0 -14 -3 -6 -6z"/>
<path d="M2478 5403 c6 -2 18 -2 25 0 6 3 1 5 -13 5 -14 0 -19 -2 -12 -5z"/>
<path d="M2269 5370 c-19 -10 -42 -26 -50 -36 -9 -12 3 -8 36 11 28 16 54 32
60 37 16 14 -8 8 -46 -12z"/>
<path d="M2581 5377 c22 -19 99 -67 99 -63 0 9 -82 66 -93 66 -6 0 -8 -2 -6
-3z"/>
<path d="M15233 5318 c-20 -26 -26 -41 -15 -34 12 7 36 46 29 46 -3 0 -9 -6
-14 -12z"/>
<path d="M15770 5311 c5 -11 15 -23 21 -27 6 -3 3 5 -6 20 -20 30 -30 35 -15
7z"/>
<path d="M2168 5283 c-19 -23 -31 -43 -24 -43 2 0 14 14 26 30 23 33 22 40 -2
13z"/>
<path d="M2698 5285 c6 -11 21 -31 33 -45 l21 -25 -19 33 c-10 19 -24 39 -32
45 -12 10 -12 9 -3 -8z"/>
<path d="M2278 5253 c23 -2 59 -2 80 0 20 2 1 4 -43 4 -44 0 -61 -2 -37 -4z"/>
<path d="M2518 5253 c23 -2 59 -2 80 0 20 2 1 4 -43 4 -44 0 -61 -2 -37 -4z"/>
<path d="M2343 5183 c53 -2 141 -2 195 0 53 1 9 3 -98 3 -107 0 -151 -2 -97
-3z"/>
<path d="M15363 5143 c15 -2 39 -2 55 0 15 2 2 4 -28 4 -30 0 -43 -2 -27 -4z"/>
<path d="M15588 5143 c18 -2 45 -2 60 0 15 2 0 4 -33 4 -33 0 -45 -2 -27 -4z"/>
<path d="M2480 5109 c0 -5 5 -7 10 -4 6 3 10 8 10 11 0 2 -4 4 -10 4 -5 0 -10
-5 -10 -11z"/>
<path d="M2615 5110 c3 -5 8 -10 11 -10 2 0 4 5 4 10 0 6 -5 10 -11 10 -5 0
-7 -4 -4 -10z"/>
<path d="M7570 5101 c0 -30 33 -31 1446 -29 1342 3 1419 4 1422 21 3 16 -70
17 -1432 17 -817 0 -1436 -4 -1436 -9z"/>
<path d="M2245 5040 c-4 -6 22 -10 69 -10 44 0 76 4 76 10 0 6 -30 10 -69 10
-39 0 -73 -4 -76 -10z"/>
<path d="M2485 5040 c-4 -6 22 -10 69 -10 44 0 76 4 76 10 0 6 -30 10 -69 10
-39 0 -73 -4 -76 -10z"/>
<path d="M14945 5033 c15 -17 208 -143 212 -140 2 2 -34 29 -79 59 -110 73
-145 94 -133 81z"/>
<path d="M15323 5002 c-6 -4 76 -7 182 -7 106 0 188 3 182 7 -7 4 -88 8 -182
8 -93 0 -175 -4 -182 -8z"/>
<path d="M2886 4929 c-123 -86 -118 -91 7 -7 103 69 115 78 102 77 -6 0 -55
-31 -109 -70z"/>
<path d="M2245 4970 c-4 -6 23 -10 75 -10 52 0 79 4 75 10 -3 6 -37 10 -75 10
-38 0 -72 -4 -75 -10z"/>
<path d="M2485 4970 c-4 -6 22 -10 69 -10 44 0 76 4 76 10 0 6 -30 10 -69 10
-39 0 -73 -4 -76 -10z"/>
<path d="M15368 4933 c12 -2 32 -2 45 0 12 2 2 4 -23 4 -25 0 -35 -2 -22 -4z"/>
<path d="M15588 4933 c7 -3 16 -2 19 1 4 3 -2 6 -13 5 -11 0 -14 -3 -6 -6z"/>
<path d="M15633 4933 c9 -2 23 -2 30 0 6 3 -1 5 -18 5 -16 0 -22 -2 -12 -5z"/>
<path d="M15940 4890 c-6 -11 -8 -20 -6 -20 3 0 10 9 16 20 6 11 8 20 6 20 -3
0 -10 -9 -16 -20z"/>
<path d="M2338 4893 c57 -2 147 -2 200 0 53 1 7 3 -103 3 -110 0 -154 -2 -97
-3z"/>
<path d="M15015 4810 c-3 -5 -2 -10 4 -10 5 0 13 5 16 10 3 6 2 10 -4 10 -5 0
-13 -4 -16 -10z"/>
<path d="M15155 4810 c3 -5 8 -10 11 -10 2 0 4 5 4 10 0 6 -5 10 -11 10 -5 0
-7 -4 -4 -10z"/>
<path d="M14980 4799 c0 -5 5 -7 10 -4 6 3 10 8 10 11 0 2 -4 4 -10 4 -5 0
-10 -5 -10 -11z"/>
<path d="M14907 4770 c-26 -16 -47 -32 -47 -36 0 -3 12 2 28 12 15 10 39 24
55 32 15 7 27 15 27 18 0 10 -19 2 -63 -26z"/>
<path d="M2908 4783 c7 -3 16 -2 19 1 4 3 -2 6 -13 5 -11 0 -14 -3 -6 -6z"/>
<path d="M15240 4786 c0 -3 9 -10 20 -16 11 -6 20 -8 20 -6 0 3 -9 10 -20 16
-11 6 -20 8 -20 6z"/>
<path d="M2688 4750 c-20 -11 -39 -24 -43 -29 -4 -8 77 32 94 46 13 10 -19 -1
-51 -17z"/>
<path d="M3010 4744 c25 -14 52 -31 60 -37 13 -11 13 -10 1 6 -14 18 -82 57
-98 57 -4 0 12 -12 37 -26z"/>
<path d="M15290 4751 c0 -5 7 -12 16 -15 14 -5 15 -4 4 9 -14 17 -20 19 -20 6z"/>
<path d="M14812 4683 c-29 -43 -36 -61 -13 -33 25 29 44 60 37 60 -3 0 -13
-12 -24 -27z"/>
<path d="M15359 4683 c12 -18 24 -33 27 -33 9 0 -15 37 -33 51 -12 10 -11 5 6
-18z"/>
<path d="M2580 4658 c-29 -44 -32 -53 -6 -23 22 26 32 45 23 45 -1 0 -9 -10
-17 -22z"/>
<path d="M3121 4653 c13 -16 28 -32 33 -38 12 -14 -11 27 -27 48 -8 9 -18 17
-22 17 -5 0 2 -12 16 -27z"/>
<path d="M14993 4663 c53 -2 141 -2 195 0 53 1 9 3 -98 3 -107 0 -151 -2 -97
-3z"/>
<path d="M15784 4638 c-4 -7 -14 -24 -22 -38 -14 -24 -13 -24 3 -5 20 24 37
55 31 55 -3 0 -8 -6 -12 -12z"/>
<path d="M2730 4633 c160 -7 308 -7 303 0 -2 4 -86 6 -186 5 -100 -1 -153 -3
-117 -5z"/>
<path d="M15035 4590 c3 -5 8 -10 11 -10 2 0 4 5 4 10 0 6 -5 10 -11 10 -5 0
-7 -4 -4 -10z"/>
<path d="M7572 4573 c3 -17 79 -18 1433 -18 1354 0 1430 1 1433 18 3 16 -70
17 -1433 17 -1363 0 -1436 -1 -1433 -17z"/>
<path d="M15713 4528 c-15 -20 -25 -38 -20 -38 3 0 12 11 21 25 17 26 16 35
-1 13z"/>
<path d="M14920 4524 c60 -8 128 -8 123 -1 -2 4 -37 6 -76 6 -40 -1 -61 -3
-47 -5z"/>
<path d="M15137 4523 c-3 -5 18 -7 46 -5 92 5 104 9 30 11 -39 0 -74 -2 -76
-6z"/>
<path d="M14526 4462 c30 -27 181 -149 192 -156 6 -4 12 -5 12 -3 0 7 -198
167 -206 167 -5 0 -4 -4 2 -8z"/>
<path d="M14900 4449 c0 -5 5 -7 10 -4 6 3 10 8 10 11 0 2 -4 4 -10 4 -5 0
-10 -5 -10 -11z"/>
<path d="M14948 4453 c12 -2 32 -2 45 0 12 2 2 4 -23 4 -25 0 -35 -2 -22 -4z"/>
<path d="M15025 4450 c3 -5 11 -10 16 -10 6 0 7 5 4 10 -3 6 -11 10 -16 10 -6
0 -7 -4 -4 -10z"/>
<path d="M15135 4450 c-3 -5 -2 -10 4 -10 5 0 13 5 16 10 3 6 2 10 -4 10 -5 0
-13 -4 -16 -10z"/>
<path d="M15198 4453 c7 -3 16 -2 19 1 4 3 -2 6 -13 5 -11 0 -14 -3 -6 -6z"/>
<path d="M15238 4453 c7 -3 16 -2 19 1 4 3 -2 6 -13 5 -11 0 -14 -3 -6 -6z"/>
<path d="M15594 4353 c-37 -54 -78 -113 -92 -130 -13 -18 -22 -33 -19 -33 4 0
44 53 90 118 93 131 100 142 93 142 -2 0 -35 -44 -72 -97z"/>
<path d="M3354 4387 c-33 -29 -78 -66 -100 -84 -21 -18 -36 -32 -32 -32 8 -1
192 149 196 160 6 15 -1 10 -64 -44z"/>
<path d="M2697 4413 c18 -2 50 -2 70 0 21 2 7 4 -32 4 -38 0 -55 -2 -38 -4z"/>
<path d="M2937 4413 c18 -2 50 -2 70 0 21 2 7 4 -32 4 -38 0 -55 -2 -38 -4z"/>
<path d="M14900 4380 c0 -6 72 -10 196 -10 127 0 193 3 189 10 -4 6 -80 10
-196 10 -119 0 -189 -4 -189 -10z"/>
<path d="M14900 4310 c-10 -7 11 -10 70 -10 59 0 80 3 70 10 -8 5 -40 10 -70
10 -30 0 -62 -5 -70 -10z"/>
<path d="M15140 4310 c-10 -7 11 -10 70 -10 59 0 80 3 70 10 -8 5 -40 10 -70
10 -30 0 -62 -5 -70 -10z"/>
<path d="M2763 4273 c54 -2 139 -2 190 0 51 1 7 3 -98 3 -104 0 -146 -2 -92
-3z"/>
<path d="M14553 4233 c9 -2 23 -2 30 0 6 3 -1 5 -18 5 -16 0 -22 -2 -12 -5z"/>
<path d="M14700 4225 c25 -8 72 -30 105 -50 59 -34 59 -34 25 -5 -35 31 -126
71 -158 69 -9 0 3 -7 28 -14z"/>
<path d="M14459 4205 c-25 -13 -52 -32 -60 -41 -12 -15 -8 -15 21 3 19 11 53
30 75 42 22 12 33 21 25 21 -8 -1 -36 -12 -61 -25z"/>
<path d="M3249 4207 c-42 -12 -139 -62 -139 -72 0 -3 26 8 58 24 89 46 140 56
217 41 36 -7 84 -25 110 -41 50 -32 63 -36 46 -15 -21 25 -125 65 -186 70 -36
3 -78 0 -106 -7z"/>
<path d="M2733 4193 c59 -2 154 -2 210 0 56 1 8 3 -108 3 -115 0 -161 -2 -102
-3z"/>
<path d="M3058 4193 c6 -2 18 -2 25 0 6 3 1 5 -13 5 -14 0 -19 -2 -12 -5z"/>
<path d="M15459 4163 c-13 -16 -12 -17 4 -4 16 13 21 21 13 21 -2 0 -10 -8
-17 -17z"/>
<path d="M15395 4080 c-25 -33 -44 -60 -41 -60 3 0 26 27 51 60 25 33 44 60
41 60 -3 0 -26 -27 -51 -60z"/>
<path d="M14348 4113 c-18 -21 -31 -43 -25 -43 2 0 13 14 25 30 25 33 24 41 0
13z"/>
<path d="M14895 4093 c15 -24 30 -43 32 -43 7 0 -31 61 -46 73 -8 7 -2 -7 14
-30z"/>
<path d="M3058 4083 c-19 -23 -31 -43 -24 -43 2 0 14 14 26 30 23 33 22 40 -2
13z"/>
<path d="M3600 4073 c13 -18 25 -33 27 -33 8 0 -17 38 -33 51 -11 9 -9 2 6
-18z"/>
<path d="M7574 4059 c-3 -6 -2 -15 3 -20 13 -13 2843 -13 2856 0 5 5 6 14 3
20 -10 16 -2852 16 -2862 0z"/>
<path d="M14458 4013 c23 -2 59 -2 80 0 20 2 1 4 -43 4 -44 0 -61 -2 -37 -4z"/>
<path d="M14698 4013 c23 -2 59 -2 80 0 20 2 1 4 -43 4 -44 0 -61 -2 -37 -4z"/>
<path d="M15310 3970 c-17 -22 -29 -40 -27 -40 3 0 20 18 37 40 17 22 29 40
27 40 -3 0 -20 -18 -37 -40z"/>
<path d="M3178 3983 c17 -2 47 -2 65 0 17 2 3 4 -33 4 -36 0 -50 -2 -32 -4z"/>
<path d="M3413 3983 c20 -2 54 -2 75 0 20 2 3 4 -38 4 -41 0 -58 -2 -37 -4z"/>
<path d="M14145 3850 c49 -49 92 -90 95 -90 2 0 -36 41 -85 90 -49 50 -92 90
-95 90 -2 0 36 -40 85 -90z"/>
<path d="M3805 3828 l-90 -93 93 90 c85 83 97 95 89 95 -1 0 -43 -42 -92 -92z"/>
<path d="M15151 3778 c-66 -79 -152 -179 -192 -223 -45 -49 -55 -63 -25 -35
63 59 354 400 342 400 -3 0 -59 -64 -125 -142z"/>
<path d="M14427 3873 c-3 -5 28 -8 69 -8 41 0 74 3 74 8 0 4 -31 7 -69 7 -39
0 -72 -3 -74 -7z"/>
<path d="M14667 3873 c-3 -5 28 -8 69 -8 41 0 74 3 74 8 0 4 -31 7 -69 7 -39
0 -72 -3 -74 -7z"/>
<path d="M3156 3842 c-3 -5 18 -7 47 -5 75 6 81 11 15 12 -31 1 -59 -3 -62 -7z"/>
<path d="M3387 3843 c-3 -5 26 -8 63 -8 37 0 66 3 63 8 -2 4 -31 7 -63 7 -32
0 -61 -3 -63 -7z"/>
<path d="M14425 3800 c-4 -7 62 -10 189 -10 124 0 196 4 196 10 0 6 -70 10
-189 10 -116 0 -192 -4 -196 -10z"/>
<path d="M3198 3773 c12 -2 32 -2 45 0 12 2 2 4 -23 4 -25 0 -35 -2 -22 -4z"/>
<path d="M3433 3773 c15 -2 37 -2 50 0 12 2 0 4 -28 4 -27 0 -38 -2 -22 -4z"/>
<path d="M14663 3728 c-2 -5 31 -7 74 -7 82 2 75 6 -15 11 -30 2 -56 0 -59 -4z"/>
<path d="M14458 3723 c23 -2 61 -2 85 0 23 2 4 4 -43 4 -47 0 -66 -2 -42 -4z"/>
<path d="M13968 3691 c-52 -21 -112 -60 -104 -69 3 -3 14 2 24 11 10 9 43 28
75 41 31 14 57 28 57 31 0 6 3 7 -52 -14z"/>
<path d="M14068 3703 c18 -2 45 -2 60 0 15 2 0 4 -33 4 -33 0 -45 -2 -27 -4z"/>
<path d="M14165 3700 c3 -5 18 -11 33 -15 15 -3 48 -19 72 -35 50 -33 76 -41
39 -11 -46 35 -158 83 -144 61z"/>
<path d="M3805 3680 c-3 -5 -2 -10 4 -10 5 0 13 5 16 10 3 6 2 10 -4 10 -5 0
-13 -4 -16 -10z"/>
<path d="M3895 3680 c3 -5 11 -10 16 -10 6 0 7 5 4 10 -3 6 -11 10 -16 10 -6
0 -7 -4 -4 -10z"/>
<path d="M3760 3669 c0 -5 5 -7 10 -4 6 3 10 8 10 11 0 2 -4 4 -10 4 -5 0 -10
-5 -10 -11z"/>
<path d="M3945 3670 c3 -5 8 -10 11 -10 2 0 4 5 4 10 0 6 -5 10 -11 10 -5 0
-7 -4 -4 -10z"/>
<path d="M3705 3650 c-22 -10 -51 -28 -65 -40 -18 -15 -7 -12 35 11 87 47 106
66 30 29z"/>
<path d="M3995 3652 c17 -10 37 -21 45 -25 8 -4 26 -14 40 -23 l25 -16 -25 21
c-26 23 -94 61 -107 61 -4 0 6 -8 22 -18z"/>
<path d="M14390 3656 c0 -2 7 -7 16 -10 8 -3 12 -2 9 4 -6 10 -25 14 -25 6z"/>
<path d="M14815 3650 c-3 -6 1 -7 9 -4 18 7 21 14 7 14 -6 0 -13 -4 -16 -10z"/>
<path d="M13812 3573 c-34 -50 -35 -59 -4 -23 29 32 38 50 28 50 -3 0 -13 -12
-24 -27z"/>
<path d="M14366 3565 c16 -22 29 -42 31 -44 2 -2 3 0 3 5 0 5 -14 25 -31 44
l-30 35 27 -40z"/>
<path d="M3576 3540 c-14 -22 -25 -40 -22 -40 7 0 58 71 53 76 -2 2 -16 -14
-31 -36z"/>
<path d="M4110 3573 c0 -5 14 -24 31 -43 l30 -35 -27 43 c-26 41 -34 50 -34
35z"/>
<path d="M13992 3553 c48 -2 129 -2 180 0 51 1 12 3 -87 3 -99 0 -141 -2 -93
-3z"/>
<path d="M3664 3528 c-3 -4 31 -8 76 -8 46 0 79 4 76 9 -7 11 -145 11 -152 -1z"/>
<path d="M3904 3528 c-3 -4 32 -8 77 -8 45 0 79 3 75 8 -10 10 -146 10 -152 0z"/>
<path d="M3672 3461 c-8 -5 17 -9 63 -10 51 -1 75 2 70 9 -7 12 -114 13 -133
1z"/>
<path d="M3908 3458 c-8 -5 21 -8 70 -7 51 1 79 5 70 10 -16 11 -122 9 -140
-3z"/>
<path d="M14730 3314 c-248 -250 -528 -499 -807 -718 -62 -48 -113 -90 -113
-93 0 -16 397 308 584 478 140 127 507 489 496 489 -3 0 -75 -70 -160 -156z"/>
<path d="M13560 3435 c13 -14 26 -25 28 -25 3 0 -5 11 -18 25 -13 14 -26 25
-28 25 -3 0 5 -11 18 -25z"/>
<path d="M4342 3358 c-63 -77 -100 -128 -75 -103 20 19 153 185 149 185 -3 0
-36 -37 -74 -82z"/>
<path d="M13631 3350 c58 -74 59 -76 59 -64 0 5 -23 34 -51 64 l-51 55 43 -55z"/>
<path d="M10350 3265 c-89 -89 -105 -110 -102 -133 2 -19 35 -59 105 -129 56
-57 106 -103 112 -103 6 0 55 45 110 100 135 136 135 133 2 268 -56 56 -106
102 -112 102 -6 0 -58 -47 -115 -105z"/>
<path d="M3703 3313 c20 -2 54 -2 75 0 20 2 3 4 -38 4 -41 0 -58 -2 -37 -4z"/>
<path d="M3938 3313 c23 -2 59 -2 80 0 20 2 1 4 -43 4 -44 0 -61 -2 -37 -4z"/>
<path d="M5420 3135 l0 -165 30 0 c29 0 30 1 30 48 0 84 6 92 60 92 56 0 60
-6 60 -86 0 -53 0 -54 30 -54 l30 0 0 165 0 165 -30 0 -30 0 0 -65 0 -65 -60
0 -60 0 0 65 0 65 -30 0 -30 0 0 -165z"/>
<path d="M5720 3190 c0 -128 16 -182 61 -205 56 -29 118 -14 149 37 17 28 20
51 20 156 l0 122 -30 0 -30 0 0 -116 c0 -130 -8 -154 -49 -154 -47 0 -56 21
-60 152 l-3 118 -29 0 -29 0 0 -110z"/>
<path d="M6026 3203 c-4 -54 -9 -128 -12 -165 l-5 -68 29 0 30 0 8 128 7 127
23 -100 c13 -55 26 -110 29 -123 4 -18 12 -23 32 -20 25 3 29 10 58 123 l32
120 8 -127 7 -128 30 0 29 0 -6 153 c-4 83 -8 158 -10 165 -3 7 -21 12 -43 12
l-39 0 -22 -74 c-12 -40 -25 -90 -28 -110 -3 -21 -9 -34 -13 -29 -3 4 -17 54
-30 111 l-24 102 -42 0 -42 0 -6 -97z"/>
<path d="M6440 3258 c-44 -165 -71 -265 -75 -275 -3 -9 7 -13 29 -13 31 0 35
3 43 38 8 36 10 37 53 37 44 0 45 -1 54 -37 9 -34 13 -38 43 -38 18 0 33 3 33
8 0 4 -20 77 -43 162 l-43 155 -42 3 c-41 3 -41 3 -52 -40z m63 -60 c3 -18 9
-48 13 -65 6 -32 5 -33 -26 -33 -31 0 -32 1 -26 33 4 17 10 47 13 65 3 17 9
32 13 32 4 0 10 -15 13 -32z"/>
<path d="M6660 3135 l0 -165 30 0 30 0 0 117 0 118 55 -115 c54 -112 56 -115
90 -118 l35 -3 0 165 0 166 -31 0 -31 0 4 -114 3 -114 -54 114 -54 114 -39 0
-38 0 0 -165z"/>
<path d="M7068 3294 c-16 -5 -18 -22 -18 -165 l0 -159 67 0 c130 0 187 53 188
172 0 74 -19 112 -70 137 -29 14 -137 24 -167 15z m111 -55 c63 -22 83 -122
35 -178 -21 -25 -33 -31 -66 -31 l-40 0 3 103 c3 120 8 127 68 106z"/>
<path d="M7350 3135 l0 -165 90 0 90 0 0 30 0 30 -60 0 -60 0 0 35 0 35 55 0
c54 0 55 0 55 30 0 30 -1 30 -55 30 l-55 0 0 40 0 40 60 0 60 0 0 30 0 30 -90
0 -90 0 0 -165z"/>
<path d="M7624 3285 c-32 -16 -54 -51 -54 -83 1 -33 27 -64 76 -91 83 -45 64
-94 -30 -77 -29 6 -35 3 -41 -15 -10 -32 10 -44 75 -44 47 0 63 4 83 23 54 51
36 130 -36 162 -58 26 -74 45 -56 66 10 12 25 15 56 11 39 -4 44 -2 49 20 4
13 4 26 1 30 -15 14 -94 13 -123 -2z"/>
<path d="M7810 3135 l0 -165 30 0 30 0 0 165 0 165 -30 0 -30 0 0 -165z"/>
<path d="M8010 3278 c-78 -40 -109 -131 -74 -218 25 -61 65 -85 144 -85 100 0
100 0 100 100 l0 86 -52 -3 c-49 -3 -53 -5 -56 -30 -3 -24 0 -28 22 -28 23 0
26 -4 26 -35 0 -34 -1 -35 -37 -35 -62 1 -93 38 -93 110 0 33 6 48 30 72 28
28 35 30 85 26 50 -4 54 -3 58 19 9 46 -79 58 -153 21z"/>
<path d="M8230 3135 l0 -165 30 0 30 0 0 117 0 118 55 -115 c54 -112 56 -115
90 -118 l35 -3 0 165 0 166 -31 0 -30 0 3 -110 c2 -61 2 -110 1 -110 -1 0 -25
50 -54 110 l-52 110 -39 0 -38 0 0 -165z"/>
<path d="M8665 3286 c-29 -13 -55 -51 -55 -82 0 -34 31 -72 75 -93 51 -24 64
-43 44 -67 -10 -13 -24 -15 -61 -11 -41 5 -48 3 -53 -15 -10 -31 10 -43 75
-43 48 0 63 4 84 24 55 51 38 124 -37 162 -63 32 -68 38 -56 61 9 16 19 19 57
16 44 -3 47 -1 50 23 2 20 -2 28 -20 33 -35 9 -70 7 -103 -8z"/>
<path d="M8830 3295 c0 -3 20 -49 45 -102 39 -82 45 -105 45 -159 l0 -64 30 0
30 0 0 70 c0 63 4 79 45 160 25 49 45 92 45 95 0 3 -15 5 -34 5 -34 0 -35 -1
-57 -69 -13 -39 -26 -68 -30 -65 -4 2 -17 33 -29 69 -21 63 -23 65 -56 65 -19
0 -34 -2 -34 -5z"/>
<path d="M9144 3285 c-32 -16 -54 -51 -54 -83 1 -33 27 -64 76 -91 83 -45 64
-94 -30 -77 -29 6 -35 3 -41 -15 -10 -32 10 -44 75 -44 47 0 63 4 83 23 54 51
36 130 -36 162 -58 26 -74 45 -56 66 10 12 25 15 56 11 39 -4 44 -2 49 20 4
13 4 26 1 30 -15 14 -94 13 -123 -2z"/>
<path d="M9310 3270 c0 -28 2 -30 40 -30 l40 0 0 -135 0 -135 30 0 30 0 0 135
0 135 40 0 c38 0 40 2 40 30 l0 30 -110 0 -110 0 0 -30z"/>
<path d="M9570 3135 l0 -165 90 0 90 0 0 30 0 30 -60 0 -60 0 0 35 0 35 55 0
c54 0 55 0 55 30 0 30 -1 30 -55 30 l-55 0 0 40 0 40 60 0 60 0 0 30 0 30 -90
0 -90 0 0 -165z"/>
<path d="M9806 3203 c-4 -54 -9 -128 -12 -165 l-5 -68 29 0 30 0 8 128 7 127
23 -100 c13 -55 26 -110 29 -123 4 -18 12 -23 32 -20 25 3 29 10 58 123 l32
120 8 -127 7 -128 30 0 29 0 -6 153 c-4 83 -8 158 -10 165 -3 7 -21 12 -43 12
l-39 0 -22 -74 c-12 -40 -25 -90 -28 -110 -3 -21 -9 -34 -13 -29 -3 4 -17 54
-30 111 l-24 102 -42 0 -42 0 -6 -97z"/>
<path d="M10850 3135 l0 -165 30 0 30 0 0 117 0 118 55 -115 c54 -112 56 -115
90 -118 l35 -3 0 165 0 166 -31 0 -30 0 3 -110 c2 -61 2 -110 1 -110 -1 0 -25
50 -54 110 l-52 110 -39 0 -38 0 0 -165z"/>
<path d="M11215 3282 c-74 -36 -105 -139 -67 -225 24 -54 57 -78 115 -84 54
-5 105 20 132 67 26 45 27 141 2 187 -35 65 -111 88 -182 55z m115 -74 c46
-75 14 -178 -55 -178 -69 0 -101 103 -55 178 16 26 26 32 55 32 29 0 39 -6 55
-32z"/>
<path d="M11478 3293 c-16 -4 -18 -20 -18 -164 l0 -159 30 0 30 0 0 65 c0 58
2 65 19 65 22 0 51 -25 51 -43 0 -7 5 -29 11 -49 9 -33 14 -38 39 -38 17 0 30
3 30 8 0 21 -30 115 -40 127 -9 11 -7 20 9 41 22 28 28 83 11 114 -17 32 -109
50 -172 33z m103 -53 c22 -12 26 -59 7 -78 -7 -7 -25 -12 -40 -12 -26 0 -28 3
-28 43 0 59 16 71 61 47z"/>
<path d="M11694 3283 c2 -10 14 -67 26 -128 36 -186 36 -185 74 -185 l33 0 24
118 23 117 20 -118 20 -118 35 3 35 3 19 80 c10 44 26 117 36 163 l19 82 -33
0 -33 0 -18 -119 c-10 -66 -20 -118 -22 -116 -3 3 -39 206 -42 233 0 1 -15 2
-33 2 l-34 0 -18 -107 c-10 -60 -21 -114 -25 -121 -4 -8 -15 41 -24 107 l-18
121 -35 0 c-28 0 -33 -3 -29 -17z"/>
<path d="M12130 3258 c-44 -165 -71 -265 -75 -275 -3 -9 7 -13 29 -13 31 0 35
3 43 38 8 36 10 37 53 37 44 0 45 -1 54 -37 9 -34 13 -38 43 -38 18 0 33 3 33
8 -1 4 -20 77 -44 162 l-42 155 -42 3 c-41 3 -41 3 -52 -40z m63 -60 c3 -18 9
-48 13 -65 6 -32 5 -33 -26 -33 -31 0 -32 1 -26 33 4 17 10 47 13 65 3 17 9
32 13 32 4 0 10 -15 13 -32z"/>
<path d="M12290 3295 c0 -3 20 -49 45 -102 39 -82 45 -105 45 -159 l0 -64 30
0 30 0 0 70 c0 63 4 79 45 160 25 49 45 92 45 95 0 3 -15 5 -33 5 -33 0 -35
-2 -57 -69 -13 -38 -27 -68 -31 -65 -4 2 -17 33 -29 69 -21 63 -23 65 -56 65
-19 0 -34 -2 -34 -5z"/>
<path d="M13927 3263 c18 -2 50 -2 70 0 21 2 7 4 -32 4 -38 0 -55 -2 -38 -4z"/>
<path d="M14177 3263 c18 -2 50 -2 70 0 21 2 7 4 -32 4 -38 0 -55 -2 -38 -4z"/>
<path d="M3678 3243 c7 -3 16 -2 19 1 4 3 -2 6 -13 5 -11 0 -14 -3 -6 -6z"/>
<path d="M4028 3243 c7 -3 16 -2 19 1 4 3 -2 6 -13 5 -11 0 -14 -3 -6 -6z"/>
<path d="M13445 3230 c-19 -8 -19 -9 3 -9 12 -1 22 4 22 9 0 6 -1 10 -2 9 -2
0 -12 -4 -23 -9z"/>
<path d="M13560 3230 c0 -6 7 -10 15 -10 8 0 15 2 15 4 0 2 -7 6 -15 10 -8 3
-15 1 -15 -4z"/>
<path d="M4405 3210 c-16 -7 -17 -9 -3 -9 9 -1 20 4 23 9 7 11 7 11 -20 0z"/>
<path d="M4458 3208 c5 -5 16 -8 23 -6 8 3 3 7 -10 11 -17 4 -21 3 -13 -5z"/>
<path d="M13343 3190 c-29 -17 -53 -33 -53 -36 0 -3 5 -2 11 2 6 3 37 19 68
35 31 16 49 29 41 29 -8 0 -39 -14 -67 -30z"/>
<path d="M13639 3204 c19 -8 36 -12 39 -9 5 5 -43 25 -61 25 -7 -1 3 -7 22
-16z"/>
<path d="M4338 3203 c-10 -2 -18 -8 -18 -13 0 -10 38 -1 46 11 5 9 1 10 -28 2z"/>
<path d="M4510 3200 c0 -5 5 -10 10 -10 6 0 10 5 10 10 0 6 -4 10 -10 10 -5 0
-10 -4 -10 -10z"/>
<path d="M4540 3196 c0 -3 27 -18 60 -34 74 -37 78 -33 8 8 -51 28 -68 35 -68
26z"/>
<path d="M13694 3181 c4 -6 16 -16 28 -22 15 -8 18 -8 14 0 -4 6 -16 16 -28
22 -15 8 -18 8 -14 0z"/>
<path d="M3670 3173 c0 -5 32 -8 70 -8 39 0 70 3 70 8 0 4 -31 7 -70 7 -38 0
-70 -3 -70 -7z"/>
<path d="M3907 3173 c-3 -5 28 -8 69 -8 41 0 74 3 74 8 0 4 -31 7 -69 7 -39 0
-72 -3 -74 -7z"/>
<path d="M4253 3160 c-34 -20 -47 -38 -15 -21 23 13 58 40 52 41 -3 0 -20 -9
-37 -20z"/>
<path d="M13252 3113 c-7 -2 -17 -14 -23 -26 -11 -21 -10 -20 15 2 14 14 26
26 26 28 0 3 0 3 -18 -4z"/>
<path d="M13786 3087 c16 -19 30 -33 32 -31 7 5 -30 52 -45 58 -8 4 -2 -9 13
-27z"/>
<path d="M3743 3093 c64 -2 170 -2 235 0 64 1 11 3 -118 3 -129 0 -182 -2
-117 -3z"/>
<path d="M4168 3083 c-18 -21 -31 -43 -25 -43 2 0 13 14 25 30 25 33 24 41 0
13z"/>
<path d="M4691 3088 c8 -7 23 -22 33 -33 14 -15 13 -11 -3 13 -12 17 -27 32
-34 32 -6 0 -5 -5 4 -12z"/>
<path d="M13353 3073 c20 -2 54 -2 75 0 20 2 3 4 -38 4 -41 0 -58 -2 -37 -4z"/>
<path d="M13603 3073 c20 -2 54 -2 75 0 20 2 3 4 -38 4 -41 0 -58 -2 -37 -4z"/>
<path d="M4353 3053 c42 -2 112 -2 155 0 42 1 7 3 -78 3 -85 0 -120 -2 -77 -3z"/>
<path d="M4288 2983 c17 -2 47 -2 65 0 17 2 3 4 -33 4 -36 0 -50 -2 -32 -4z"/>
<path d="M4517 2983 c18 -2 50 -2 70 0 21 2 7 4 -32 4 -38 0 -55 -2 -38 -4z"/>
<path d="M4896 2900 c-25 -38 -46 -73 -46 -77 0 -4 15 15 33 42 58 86 69 105
65 105 -3 0 -26 -31 -52 -70z"/>
<path d="M13072 2891 c18 -27 35 -48 36 -46 5 4 -57 95 -64 95 -2 0 10 -22 28
-49z"/>
<path d="M12838 2813 c6 -2 18 -2 25 0 6 3 1 5 -13 5 -14 0 -19 -2 -12 -5z"/>
<path d="M12798 2803 c7 -3 16 -2 19 1 4 3 -2 6 -13 5 -11 0 -14 -3 -6 -6z"/>
<path d="M13005 2793 c22 -9 53 -25 68 -36 16 -10 30 -17 33 -14 10 10 -103
68 -130 66 -6 0 7 -7 29 -16z"/>
<path d="M5008 2793 c6 -2 18 -2 25 0 6 3 1 5 -13 5 -14 0 -19 -2 -12 -5z"/>
<path d="M5098 2793 c7 -3 16 -2 19 1 4 3 -2 6 -13 5 -11 0 -14 -3 -6 -6z"/>
<path d="M12728 2780 c-20 -11 -40 -25 -44 -32 -6 -9 76 32 95 48 12 11 -19 1
-51 -16z"/>
<path d="M4883 2750 c-28 -16 -55 -35 -59 -41 -5 -8 -3 -9 7 -3 8 4 38 23 68
41 68 41 55 44 -16 3z"/>
<path d="M5219 2750 c29 -16 61 -35 70 -42 14 -12 15 -11 2 5 -14 18 -102 67
-118 67 -4 0 16 -14 46 -30z"/>
<path d="M4283 2763 c20 -2 54 -2 75 0 20 2 3 4 -38 4 -41 0 -58 -2 -37 -4z"/>
<path d="M4517 2763 c18 -2 50 -2 70 0 21 2 7 4 -32 4 -38 0 -55 -2 -38 -4z"/>
<path d="M13330 2720 c-13 -8 -12 -10 3 -10 9 0 17 5 17 10 0 12 -1 12 -20 0z"/>
<path d="M13680 2720 c0 -6 7 -10 15 -10 8 0 15 2 15 4 0 2 -7 6 -15 10 -8 3
-15 1 -15 -4z"/>
<path d="M12620 2687 c-28 -41 -31 -47 -26 -47 7 0 49 61 44 65 -2 2 -10 -6
-18 -18z"/>
<path d="M13140 2707 c0 -4 8 -15 18 -25 9 -9 25 -29 35 -42 17 -24 17 -24 0
8 -18 33 -53 72 -53 59z"/>
<path d="M4794 2678 c-37 -63 -37 -63 -11 -33 25 28 33 45 23 45 -3 0 -8 -6
-12 -12z"/>
<path d="M5319 2672 c5 -10 18 -25 28 -33 12 -10 11 -5 -6 19 -24 35 -38 43
-22 14z"/>
<path d="M12748 2583 c17 -2 47 -2 65 0 17 2 3 4 -33 4 -36 0 -50 -2 -32 -4z"/>
<path d="M12978 2583 c17 -2 47 -2 65 0 17 2 3 4 -33 4 -36 0 -50 -2 -32 -4z"/>
<path d="M4870 2573 c0 -5 87 -8 194 -8 107 0 192 3 189 8 -2 4 -89 7 -194 7
-104 0 -189 -3 -189 -7z"/>
<path d="M4870 2500 c0 -6 32 -10 76 -10 47 0 73 4 69 10 -3 6 -37 10 -76 10
-39 0 -69 -4 -69 -10z"/>
<path d="M5110 2500 c0 -6 32 -10 76 -10 47 0 73 4 69 10 -3 6 -37 10 -76 10
-39 0 -69 -4 -69 -10z"/>
<path d="M13670 2409 c-69 -50 -173 -122 -232 -161 -60 -39 -108 -73 -108 -75
0 -2 6 -1 13 3 142 87 481 328 455 324 -2 -1 -59 -41 -128 -91z"/>
<path d="M12228 2463 c7 -3 16 -2 19 1 4 3 -2 6 -13 5 -11 0 -14 -3 -6 -6z"/>
<path d="M12158 2453 c7 -3 16 -2 19 1 4 3 -2 6 -13 5 -11 0 -14 -3 -6 -6z"/>
<path d="M12298 2453 c7 -3 16 -2 19 1 4 3 -2 6 -13 5 -11 0 -14 -3 -6 -6z"/>
<path d="M5693 2443 c15 -2 39 -2 55 0 15 2 2 4 -28 4 -30 0 -43 -2 -27 -4z"/>
<path d="M12101 2439 c-38 -15 -93 -51 -87 -56 3 -3 18 4 33 15 16 11 44 27
63 35 38 17 30 22 -9 6z"/>
<path d="M5843 2416 c32 -14 67 -32 76 -40 20 -18 35 -21 25 -5 -8 14 -124 69
-144 69 -8 0 11 -11 43 -24z"/>
<path d="M12403 2410 c51 -32 62 -36 52 -20 -7 11 -79 50 -92 50 -4 0 14 -13
40 -30z"/>
<path d="M4898 2423 c23 -2 61 -2 85 0 23 2 4 4 -43 4 -47 0 -66 -2 -42 -4z"/>
<path d="M5138 2423 c23 -2 61 -2 85 0 23 2 4 4 -43 4 -47 0 -66 -2 -42 -4z"/>
<path d="M5581 2419 c-39 -15 -93 -51 -87 -57 3 -2 11 0 18 6 7 5 36 22 63 36
50 25 53 34 6 15z"/>
<path d="M5170 2360 l-65 -7 73 -1 c47 -1 71 2 67 8 -3 6 -7 9 -8 8 -1 -1 -31
-4 -67 -8z"/>
<path d="M4908 2353 c23 -2 59 -2 80 0 20 2 1 4 -43 4 -44 0 -61 -2 -37 -4z"/>
<path d="M12510 2318 c18 -27 35 -48 37 -48 8 0 -33 62 -51 78 -11 9 -5 -4 14
-30z"/>
<path d="M11964 2338 c-37 -63 -37 -63 -11 -33 25 28 33 45 23 45 -3 0 -8 -6
-12 -12z"/>
<path d="M5979 2322 c5 -10 18 -25 28 -33 12 -10 11 -5 -6 19 -24 35 -38 43
-22 14z"/>
<path d="M5437 2300 c-10 -16 -16 -30 -14 -30 2 0 13 14 25 30 13 17 19 30 14
30 -4 0 -16 -13 -25 -30z"/>
<path d="M12077 2303 c18 -2 50 -2 70 0 21 2 7 4 -32 4 -38 0 -55 -2 -38 -4z"/>
<path d="M12317 2303 c18 -2 50 -2 70 0 21 2 7 4 -32 4 -38 0 -55 -2 -38 -4z"/>
<path d="M11508 2173 c6 -2 18 -2 25 0 6 3 1 5 -13 5 -14 0 -19 -2 -12 -5z"/>
<path d="M11568 2173 c6 -2 18 -2 25 0 6 3 1 5 -13 5 -14 0 -19 -2 -12 -5z"/>
<path d="M12143 2163 c54 -2 139 -2 190 0 51 1 7 3 -98 3 -104 0 -146 -2 -92
-3z"/>
<path d="M13235 2119 c-72 -46 -135 -94 -75 -57 123 75 173 109 158 108 -2 0
-39 -23 -83 -51z"/>
<path d="M5573 2153 c15 -2 37 -2 50 0 12 2 0 4 -28 4 -27 0 -38 -2 -22 -4z"/>
<path d="M5818 2153 c12 -2 32 -2 45 0 12 2 2 4 -23 4 -25 0 -35 -2 -22 -4z"/>
<path d="M6478 2153 c7 -3 16 -2 19 1 4 3 -2 6 -13 5 -11 0 -14 -3 -6 -6z"/>
<path d="M11651 2157 c20 -16 119 -66 114 -57 -6 10 -98 60 -111 60 -4 0 -5
-1 -3 -3z"/>
<path d="M11368 2130 c-20 -11 -40 -25 -43 -31 -8 -12 39 11 70 35 27 21 18
19 -27 -4z"/>
<path d="M6227 2110 c-26 -16 -47 -32 -47 -35 0 -7 2 -5 69 37 25 15 40 28 35
28 -6 0 -31 -13 -57 -30z"/>
<path d="M6540 2136 c0 -8 92 -58 97 -53 2 3 -15 17 -40 31 -42 25 -57 31 -57
22z"/>
<path d="M12138 2093 c50 -2 134 -2 185 0 50 1 9 3 -93 3 -102 0 -143 -2 -92
-3z"/>
<path d="M5563 2073 c20 -2 54 -2 75 0 20 2 3 4 -38 4 -41 0 -58 -2 -37 -4z"/>
<path d="M5803 2073 c20 -2 54 -2 75 0 20 2 3 4 -38 4 -41 0 -58 -2 -37 -4z"/>
<path d="M11814 2038 c16 -21 30 -38 33 -38 8 0 -16 36 -38 55 -19 16 -18 13
5 -17z"/>
<path d="M11273 2048 c-20 -26 -26 -41 -15 -34 12 7 36 46 29 46 -3 0 -9 -6
-14 -12z"/>
<path d="M6132 2023 c-29 -43 -36 -61 -13 -33 25 29 44 60 37 60 -3 0 -13 -12
-24 -27z"/>
<path d="M6671 2045 c0 -5 11 -23 25 -40 14 -16 21 -21 16 -10 -16 30 -41 61
-41 50z"/>
<path d="M13057 2011 c-41 -26 -46 -36 -10 -17 17 9 35 20 38 26 8 13 6 12
-28 -9z"/>
<path d="M5567 2003 c18 -2 50 -2 70 0 21 2 7 4 -32 4 -38 0 -55 -2 -38 -4z"/>
<path d="M5808 2003 c17 -2 47 -2 65 0 17 2 3 4 -33 4 -36 0 -50 -2 -32 -4z"/>
<path d="M12978 1964 c-38 -20 -36 -28 2 -9 17 9 30 18 30 20 0 7 -1 6 -32
-11z"/>
<path d="M10803 1953 c15 -2 37 -2 50 0 12 2 0 4 -28 4 -27 0 -38 -2 -22 -4z"/>
<path d="M7108 1943 c12 -2 32 -2 45 0 12 2 2 4 -23 4 -25 0 -35 -2 -22 -4z"/>
<path d="M10898 1943 c7 -3 16 -2 19 1 4 3 -2 6 -13 5 -11 0 -14 -3 -6 -6z"/>
<path d="M11453 1943 c54 -2 139 -2 190 0 51 1 7 3 -98 3 -104 0 -146 -2 -92
-3z"/>
<path d="M12077 1943 c18 -2 50 -2 70 0 21 2 7 4 -32 4 -38 0 -55 -2 -38 -4z"/>
<path d="M12317 1943 c18 -2 50 -2 70 0 21 2 7 4 -32 4 -38 0 -55 -2 -38 -4z"/>
<path d="M10940 1933 c8 -3 39 -19 68 -35 28 -16 52 -27 52 -24 0 9 -104 66
-120 65 -13 -1 -13 -1 0 -6z"/>
<path d="M12898 1919 c-21 -11 -38 -22 -38 -24 0 -3 18 4 40 15 22 11 40 23
40 25 0 7 0 7 -42 -16z"/>
<path d="M6953 1900 c-29 -17 -53 -33 -53 -36 0 -3 24 8 53 24 28 16 59 32 67
35 13 5 13 5 0 6 -8 0 -39 -13 -67 -29z"/>
<path d="M7260 1913 c19 -8 47 -24 63 -35 15 -11 31 -18 34 -15 7 8 -98 67
-117 66 -8 0 1 -7 20 -16z"/>
<path d="M10643 1904 c-24 -14 -43 -27 -43 -30 0 -5 63 27 90 45 31 22 -7 10
-47 -15z"/>
<path d="M6318 1863 c50 -2 134 -2 185 0 50 1 9 3 -93 3 -102 0 -143 -2 -92
-3z"/>
<path d="M12768 1849 c-21 -11 -38 -22 -38 -24 0 -3 18 4 40 15 22 11 40 23
40 25 0 7 0 7 -42 -16z"/>
<path d="M10546 1810 c-36 -55 -33 -63 5 -11 17 24 29 45 26 47 -2 2 -16 -14
-31 -36z"/>
<path d="M11088 1835 c6 -11 21 -31 33 -45 l21 -25 -19 33 c-10 19 -24 39 -32
45 -12 10 -12 9 -3 -8z"/>
<path d="M6852 1813 c-34 -50 -35 -59 -4 -23 29 32 38 50 28 50 -3 0 -13 -12
-24 -27z"/>
<path d="M7400 1804 c42 -49 44 -50 22 -14 -11 19 -27 36 -34 39 -7 2 -2 -9
12 -25z"/>
<path d="M10048 1803 c6 -2 18 -2 25 0 6 3 1 5 -13 5 -14 0 -19 -2 -12 -5z"/>
<path d="M10138 1803 c7 -3 16 -2 19 1 4 3 -2 6 -13 5 -11 0 -14 -3 -6 -6z"/>
<path d="M10650 1804 c36 -8 138 -9 134 -2 -3 4 -38 7 -77 7 -40 -1 -65 -3
-57 -5z"/>
<path d="M10880 1803 c0 -5 32 -8 70 -8 39 0 70 3 70 8 0 4 -31 7 -70 7 -38 0
-70 -3 -70 -7z"/>
<path d="M7788 1793 c7 -3 16 -2 19 1 4 3 -2 6 -13 5 -11 0 -14 -3 -6 -6z"/>
<path d="M7947 1786 c23 -7 68 -28 100 -45 34 -19 48 -24 33 -12 -36 30 -100
60 -140 66 -32 5 -32 4 7 -9z"/>
<path d="M12648 1784 c-38 -20 -36 -28 2 -9 17 9 30 18 30 20 0 7 -1 6 -32
-11z"/>
<path d="M9960 1780 c-8 -5 -10 -10 -5 -10 6 0 17 5 25 10 8 5 11 10 5 10 -5
0 -17 -5 -25 -10z"/>
<path d="M10258 1759 c30 -17 56 -28 59 -25 5 5 -90 56 -104 56 -4 0 16 -14
45 -31z"/>
<path d="M7677 1750 c-26 -16 -47 -32 -47 -35 0 -7 2 -5 69 37 25 15 40 28 35
28 -6 0 -31 -13 -57 -30z"/>
<path d="M9900 1750 c-14 -11 -20 -20 -15 -20 6 0 21 9 35 20 14 11 21 20 15
20 -5 0 -21 -9 -35 -20z"/>
<path d="M12560 1740 c-19 -11 -30 -19 -25 -19 6 0 26 8 45 19 19 11 31 19 25
19 -5 0 -26 -8 -45 -19z"/>
<path d="M8575 1730 c-15 -6 -5 -9 37 -9 31 -1 65 -4 75 -7 12 -5 15 -4 8 3
-14 15 -96 24 -120 13z"/>
<path d="M9305 1730 c-3 -5 1 -10 9 -10 9 0 16 5 16 10 0 6 -4 10 -9 10 -6 0
-13 -4 -16 -10z"/>
<path d="M10640 1729 c0 -5 5 -7 10 -4 6 3 10 8 10 11 0 2 -4 4 -10 4 -5 0
-10 -5 -10 -11z"/>
<path d="M11000 1736 c0 -2 7 -7 16 -10 8 -3 12 -2 9 4 -6 10 -25 14 -25 6z"/>
<path d="M8520 1719 c0 -5 5 -7 10 -4 6 3 10 8 10 11 0 2 -4 4 -10 4 -5 0 -10
-5 -10 -11z"/>
<path d="M9215 1706 c-27 -13 -59 -31 -70 -40 -11 -9 7 -3 39 14 32 16 65 30
72 30 7 0 16 5 19 10 10 15 -6 12 -60 -14z"/>
<path d="M8460 1702 c-47 -24 -91 -54 -87 -59 2 -2 30 12 62 31 80 49 91 61
25 28z"/>
<path d="M8710 1716 c0 -3 19 -14 43 -25 23 -11 52 -28 65 -37 12 -9 22 -14
22 -11 0 9 -56 47 -94 62 -20 9 -36 13 -36 11z"/>
<path d="M9465 1710 c3 -5 8 -10 11 -10 2 0 4 5 4 10 0 6 -5 10 -11 10 -5 0
-7 -4 -4 -10z"/>
<path d="M9490 1700 c0 -5 6 -10 13 -10 6 0 23 -9 37 -20 14 -11 30 -20 35
-19 12 0 -20 25 -57 45 -17 8 -28 10 -28 4z"/>
<path d="M8111 1695 c0 -5 14 -26 31 -45 16 -19 25 -26 19 -15 -16 31 -51 71
-50 60z"/>
<path d="M9828 1683 c-28 -33 -31 -48 -3 -20 15 16 25 30 23 33 -3 2 -12 -4
-20 -13z"/>
<path d="M10350 1692 c0 -5 10 -17 22 -28 l21 -19 -18 28 c-18 28 -25 33 -25
19z"/>
<path d="M7582 1663 c-29 -43 -36 -61 -13 -33 25 29 44 60 37 60 -3 0 -13 -12
-24 -27z"/>
<path d="M12400 1665 c-25 -13 -40 -24 -35 -24 6 0 30 11 55 24 25 13 41 24
35 24 -5 0 -30 -11 -55 -24z"/>
<path d="M10645 1660 c-4 -6 22 -10 70 -10 48 0 74 4 70 10 -3 6 -35 10 -70
10 -35 0 -67 -4 -70 -10z"/>
<path d="M10880 1660 c-10 -7 11 -10 70 -10 59 0 80 3 70 10 -8 5 -40 10 -70
10 -30 0 -62 -5 -70 -10z"/>
<path d="M11403 1663 c15 -2 39 -2 55 0 15 2 2 4 -28 4 -30 0 -43 -2 -27 -4z"/>
<path d="M11638 1663 c18 -2 45 -2 60 0 15 2 0 4 -33 4 -33 0 -45 -2 -27 -4z"/>
<path d="M6278 1653 c12 -2 30 -2 40 0 9 3 -1 5 -23 4 -22 0 -30 -2 -17 -4z"/>
<path d="M6500 1654 c35 -7 98 -9 94 -2 -3 5 -29 7 -57 7 -29 -1 -45 -3 -37
-5z"/>
<path d="M9917 1653 c-3 -5 50 -7 116 -5 221 4 244 8 65 10 -97 1 -179 -1
-181 -5z"/>
<path d="M7033 1643 c54 -2 139 -2 190 0 51 1 7 3 -98 3 -104 0 -146 -2 -92
-3z"/>
<path d="M7708 1643 c23 -2 59 -2 80 0 20 2 1 4 -43 4 -44 0 -61 -2 -37 -4z"/>
<path d="M7948 1643 c23 -2 59 -2 80 0 20 2 1 4 -43 4 -44 0 -61 -2 -37 -4z"/>
<path d="M8860 1616 c0 -4 11 -21 25 -38 14 -16 25 -26 25 -21 0 11 -49 70
-50 59z"/>
<path d="M9070 1589 c-30 -41 -21 -43 13 -2 16 18 24 33 19 33 -6 0 -20 -14
-32 -31z"/>
<path d="M9610 1612 c0 -5 10 -17 21 -28 22 -19 22 -19 10 3 -12 24 -31 39
-31 25z"/>
<path d="M12260 1600 c-19 -11 -30 -19 -25 -19 6 0 26 8 45 19 19 11 31 19 25
19 -5 0 -26 -8 -45 -19z"/>
<path d="M8328 1593 c-19 -23 -31 -43 -24 -43 2 0 14 14 26 30 23 33 22 40 -2
13z"/>
<path d="M10647 1593 c-3 -5 82 -8 188 -8 106 0 188 3 182 7 -16 10 -364 10
-370 1z"/>
<path d="M7674 1578 c-3 -4 84 -8 193 -8 116 0 192 4 183 9 -19 11 -369 10
-376 -1z"/>
<path d="M11748 1583 c6 -2 18 -2 25 0 6 3 1 5 -13 5 -14 0 -19 -2 -12 -5z"/>
<path d="M12170 1560 c-19 -11 -30 -19 -25 -19 6 0 26 8 45 19 19 11 31 19 25
19 -5 0 -26 -8 -45 -19z"/>
<path d="M10678 1513 c23 -2 59 -2 80 0 20 2 1 4 -43 4 -44 0 -61 -2 -37 -4z"/>
<path d="M10918 1513 c23 -2 59 -2 80 0 20 2 1 4 -43 4 -44 0 -61 -2 -37 -4z"/>
<path d="M12050 1510 c-8 -5 -10 -10 -5 -10 6 0 17 5 25 10 8 5 11 10 5 10 -5
0 -17 -5 -25 -10z"/>
<path d="M6973 1503 c20 -2 54 -2 75 0 20 2 3 4 -38 4 -41 0 -58 -2 -37 -4z"/>
<path d="M7218 1503 c17 -2 47 -2 65 0 17 2 3 4 -33 4 -36 0 -50 -2 -32 -4z"/>
<path d="M7768 1503 c57 -2 147 -2 200 0 53 1 7 3 -103 3 -110 0 -154 -2 -97
-3z"/>
<path d="M9197 1503 c18 -2 50 -2 70 0 21 2 7 4 -32 4 -38 0 -55 -2 -38 -4z"/>
<path d="M9437 1503 c18 -2 50 -2 70 0 21 2 7 4 -32 4 -38 0 -55 -2 -38 -4z"/>
<path d="M10673 1443 c20 -2 54 -2 75 0 20 2 3 4 -38 4 -41 0 -58 -2 -37 -4z"/>
<path d="M10913 1443 c20 -2 54 -2 75 0 20 2 3 4 -38 4 -41 0 -58 -2 -37 -4z"/>
<path d="M7708 1433 c23 -2 59 -2 80 0 20 2 1 4 -43 4 -44 0 -61 -2 -37 -4z"/>
<path d="M7943 1433 c20 -2 54 -2 75 0 20 2 3 4 -38 4 -41 0 -58 -2 -37 -4z"/>
<path d="M11823 1420 c-34 -14 -28 -21 7 -9 17 6 30 13 30 15 0 6 -12 4 -37
-6z"/>
<path d="M11764 1394 c-18 -14 -18 -15 4 -4 12 6 22 13 22 15 0 8 -5 6 -26
-11z"/>
<path d="M7790 1366 c0 -2 7 -6 15 -10 8 -3 15 -1 15 4 0 6 -7 10 -15 10 -8 0
-15 -2 -15 -4z"/>
<path d="M7918 1363 c7 -3 16 -2 19 1 4 3 -2 6 -13 5 -11 0 -14 -3 -6 -6z"/>
<path d="M8030 1366 c0 -2 7 -6 15 -10 8 -3 15 -1 15 4 0 6 -7 10 -15 10 -8 0
-15 -2 -15 -4z"/>
<path d="M7677 1293 c-3 -5 28 -8 68 -8 40 0 71 3 68 8 -2 4 -33 7 -68 7 -35
0 -66 -3 -68 -7z"/>
<path d="M7910 1293 c0 -5 33 -8 74 -8 41 0 72 3 69 8 -2 4 -35 7 -74 7 -38 0
-69 -3 -69 -7z"/>
<path d="M8453 1283 c20 -2 54 -2 75 0 20 2 3 4 -38 4 -41 0 -58 -2 -37 -4z"/>
<path d="M8687 1283 c18 -2 50 -2 70 0 21 2 7 4 -32 4 -38 0 -55 -2 -38 -4z"/>
<path d="M7638 1213 c7 -3 16 -2 19 1 4 3 -2 6 -13 5 -11 0 -14 -3 -6 -6z"/>
<path d="M10218 993 c6 -2 18 -2 25 0 6 3 1 5 -13 5 -14 0 -19 -2 -12 -5z"/>
<path d="M10143 983 c9 -2 23 -2 30 0 6 3 -1 5 -18 5 -16 0 -22 -2 -12 -5z"/>
<path d="M10073 973 c9 -2 23 -2 30 0 6 3 -1 5 -18 5 -16 0 -22 -2 -12 -5z"/>
<path d="M9998 963 c12 -2 30 -2 40 0 9 3 -1 5 -23 4 -22 0 -30 -2 -17 -4z"/>
<path d="M7998 953 c7 -3 16 -2 19 1 4 3 -2 6 -13 5 -11 0 -14 -3 -6 -6z"/>
<path d="M9918 953 c12 -2 30 -2 40 0 9 3 -1 5 -23 4 -22 0 -30 -2 -17 -4z"/>
<path d="M8078 943 c6 -2 18 -2 25 0 6 3 1 5 -13 5 -14 0 -19 -2 -12 -5z"/>
<path d="M9828 943 c12 -2 32 -2 45 0 12 2 2 4 -23 4 -25 0 -35 -2 -22 -4z"/>
<path d="M8173 933 c9 -2 23 -2 30 0 6 3 -1 5 -18 5 -16 0 -22 -2 -12 -5z"/>
<path d="M9738 933 c12 -2 32 -2 45 0 12 2 2 4 -23 4 -25 0 -35 -2 -22 -4z"/>
<path d="M8268 923 c12 -2 30 -2 40 0 9 3 -1 5 -23 4 -22 0 -30 -2 -17 -4z"/>
<path d="M9623 923 c15 -2 39 -2 55 0 15 2 2 4 -28 4 -30 0 -43 -2 -27 -4z"/>
<path d="M8393 913 c15 -2 37 -2 50 0 12 2 0 4 -28 4 -27 0 -38 -2 -22 -4z"/>
<path d="M9487 913 c18 -2 50 -2 70 0 21 2 7 4 -32 4 -38 0 -55 -2 -38 -4z"/>
<path d="M8588 903 c18 -2 45 -2 60 0 15 2 0 4 -33 4 -33 0 -45 -2 -27 -4z"/>
<path d="M9228 903 c7 -3 16 -2 19 1 4 3 -2 6 -13 5 -11 0 -14 -3 -6 -6z"/>
<path d="M9288 903 c17 -2 47 -2 65 0 17 2 3 4 -33 4 -36 0 -50 -2 -32 -4z"/>
<path d="M9418 903 c7 -3 16 -2 19 1 4 3 -2 6 -13 5 -11 0 -14 -3 -6 -6z"/>
</g>
</svg>
